<?xml version="1.0" encoding="UTF-8" standalone="no"?>
<!DOCTYPE svg PUBLIC "-//W3C//DTD SVG 1.1//EN" "http://www.w3.org/Graphics/SVG/1.1/DTD/svg11.dtd">
<svg width="22" height="22"><circle cx="11" cy="11" r="4" fill="none" stroke="black" stroke-width="0.1"></circle><circle cx="11" cy="11" r="10" fill="none" stroke="red" stroke-width="0.1"></circle><circle cx="11" cy="11" r="9" fill="none" stroke="green" stroke-width="0.1"></circle><circle cx="11" cy="11" r="8.457233587073176" fill="none" stroke="blue" stroke-width="0.1"></circle><circle cx="11" cy="11" r="7.75" fill="none" stroke="orange" stroke-width="0.1"></circle><path d="M 19.413129941996257 10.13741984406973 L 19.49057511150604 10.136496592278686 L 19.56860300643725 10.141425057828764 L 19.646997304577386 10.150264027545484 L 19.72567184725206 10.162342397903027 L 19.804570539861302 10.177282837218572 L 19.883650509054185 10.194837486972453 L 19.96287607311949 10.214829129166965 L 20.042215955130906 10.23712398163137 L 20.12164179190907 10.261617131921758 L 20.201127255051247 10.288223940906471 L 20.280647495475215 10.316874601649616 L 20.360178773517102 10.34751050800641 L 20.439698202307056 10.380081727993208 L 20.51918356379931 10.414545185715326 L 20.598613173308927 10.450863316332185 L 20.67796577752957 10.489003047510739 L 20.757220476319542 10.528935012636884 L 20.836356661771514 10.570632932541338 L 20.915353970115113 10.614073122330554 L 20.994192243322665 10.659234092801054 L 20.994196736659767 10.659365901678502 A 10 10 0 0 1 20.994196736659767 11.340634098321493 L 20.994192243322665 11.340765907198946 L 20.915353970115113 11.385926877669446 L 20.836356661771514 11.429367067458662 L 20.757220476319542 11.471064987363116 L 20.67796577752957 11.510996952489261 L 20.598613173308927 11.549136683667815 L 20.51918356379931 11.585454814284674 L 20.439698202307056 11.619918272006792 L 20.360178773517102 11.65248949199359 L 20.280647495475215 11.683125398350384 L 20.201127255051247 11.711776059093529 L 20.12164179190907 11.738382868078242 L 20.042215955130906 11.76287601836863 L 19.96287607311949 11.785170870833035 L 19.883650509054185 11.805162513027547 L 19.804570539861302 11.822717162781428 L 19.72567184725206 11.837657602096973 L 19.646997304577386 11.849735972454516 L 19.56860300643725 11.858574942171236 L 19.49057511150604 11.863503407721314 L 19.413129941996257 11.86258015593027 L 19.413129941996257 11.86258015593027 A 0.6154080490627645 0.6154080490627645 0 1 0 19.20077591276801 13.066899701215 L 19.20077591276801 13.066899701215 L 19.27386633778176 13.092519936295446 L 19.345502940370267 13.123838290812426 L 19.416146378154878 13.158956634516382 L 19.48594521938915 13.197214868374157 L 19.55497580742766 13.238239231104695 L 19.623282627105333 13.281782148336438 L 19.69089276070642 13.327664885760687 L 19.757822573731275 13.375751031919986 L 19.824081295678646 13.425932300586293 L 19.889673134230705 13.47812015214808 L 19.954598614266484 13.532240490656152 L 20.018855472281057 13.588230124905479 L 20.082439279395913 13.646034306408984 L 20.145343890301064 13.705604958047097 L 20.207561775990257 13.766899363817279 L 20.269084276292453 13.829879176833336 L 20.329901795472278 13.894509653235232 L 20.390003956436537 13.9607590503621 L 20.449379724211166 14.028598146874586 L 20.508017506186754 14.097999855075239 L 20.507976647251315 14.098125251716535 A 10 10 0 0 1 20.27496920099226 14.738307948878072 L 20.274919897345384 14.73843027189577 L 20.185390192183704 14.753903425092435 L 20.09629958453347 14.76770518016088 L 20.007674366485006 14.779822238306688 L 19.91954177443374 14.790239307829827 L 19.831930161483363 14.79893874270826 L 19.74486921131637 14.805900095620881 L 19.65839020691198 14.81109955779925 L 19.572526373140775 14.814509246438924 L 19.487313320960077 14.81609628245873 L 19.402789634736806 14.815821572912608 L 19.318997666939968 14.81363816548201 L 19.235984643446965 14.80948896199106 L 19.153804253151513 14.803303432516383 L 19.072519030893055 14.794992692387284 L 18.992204123565674 14.78444172482395 L 18.912953673135064 14.771496203245647 L 18.83489273997914 14.755937880380076 L 18.758203090815798 14.737431365912423 L 18.683195219239668 14.715375496813856 L 18.61073633564571 14.688020115943068 L 18.61073633564571 14.688020115943068 A 0.6154080490627645 0.6154080490627645 0 1 0 17.999287277897587 15.74708095020294 L 17.999287277897583 15.747080950202943 L 18.059207174458862 15.796154493689775 L 18.115812053188833 15.850085281409221 L 18.170183989434992 15.907247208558163 L 18.22268835885482 15.96707079828153 L 18.27352473462218 16.029230940826643 L 18.32281959423022 16.093510207093082 L 18.3706595174355 16.159749904456618 L 18.417106538244152 16.227827445408064 L 18.462206365619288 16.297644230852484 L 18.505993235819417 16.369118499882333 L 18.548492984376658 16.44218080460013 L 18.58972509695713 16.516770990532528 L 18.629704136861783 16.592836096164554 L 18.668440772731493 16.670328841961922 L 18.70594253934795 16.749206512940457 L 18.74221441421985 16.829430112861232 L 18.77725926340545 16.91096371124057 L 18.811078192256282 16.99377393055938 L 18.843670825575316 17.0778295375573 L 18.875035534411197 17.16310111321898 L 18.874954251393838 17.16320497293852 A 10 10 0 0 1 18.437043495718235 17.685086689250568 L 18.436955328509043 17.685184772447275 L 18.34753279515345 17.66910381773517 L 18.25909453031654 17.651602442729377 L 18.171669788937137 17.63267714307542 L 18.08528939492449 17.612322864671494 L 17.999986026775893 17.590532723013485 L 17.91579457142445 17.567297656321976 L 17.832752568333273 17.542605991082 L 17.750900775148843 17.516442889602956 L 17.67028390053304 17.48878963531963 L 17.590951572505748 17.459622689509782 L 17.512959648008277 17.428912416823664 L 17.436372033575438 17.396621314728105 L 17.36126330291897 17.362701469457686 L 17.287722619913854 17.32709074491801 L 17.215859937597443 17.289706762441295 L 17.145816503279477 17.250436700927036 L 17.077784480237582 17.20911824819233 L 17.012049383558818 17.165498408312168 L 16.949108591648134 17.119118467888203 L 16.890375604710663 17.068630420593113 L 16.890375604710663 17.06863042059311 A 0.6154080490627645 0.6154080490627645 0 1 0 15.953581298834088 17.85469417714312 L 15.953581298834084 17.854694177143124 L 15.99310344309411 17.921302035443464 L 16.027849214191672 17.991340407432755 L 16.05939159094378 18.063651345992326 L 16.088268686715168 18.137824683758488 L 16.114779233028827 18.21362317554124 L 16.139116444983866 18.29088576266971 L 16.161415957012704 18.369492934876675 L 16.181777989410612 18.449350714464025 L 16.200279217429507 18.530382081975944 L 16.216979776506193 18.61252191678099 L 16.231927696679406 18.69571379547477 L 16.245161862527404 18.779907855832885 L 16.256714072981563 18.865059311252814 L 16.266610523838082 18.95112738239515 L 16.27487290486073 19.03807450735159 L 16.281519230876917 19.125865744052398 L 16.286564484049627 19.214468309136866 L 16.29002111885339 19.303851216049097 L 16.29189946512251 19.393984986799857 L 16.29220805403927 19.48484141942334 L 16.292096150871505 19.484911215206147 A 10 10 0 0 1 15.702100585788264 19.825545313527638 L 15.701984189283394 19.825607326622286 L 15.623454504992608 19.7799118644693 L 15.54633554291813 19.73321828350776 L 15.470655992269917 19.685533296499983 L 15.396446546652658 19.636862696541655 L 15.323740268448198 19.5872111910194 L 15.252573039961227 19.536582196679824 L 15.182984129325497 19.484977583259607 L 15.115016910989702 19.432397347826473 L 15.048719798795812 19.378839193825154 L 14.984147478545054 19.324297975874522 L 14.921362574479566 19.268764950054184 L 14.860437965720298 19.212226732832654 L 14.801460116106789 19.15466380570971 L 14.744534064070319 19.096048275697257 L 14.689791306832475 19.03634033832267 L 14.637403160536895 18.97548228585546 L 14.587605713633609 18.91338731844684 L 14.540753792245578 18.84991534960399 L 14.49747166841193 18.784805443164778 L 14.459548643162172 18.717274333073394 L 14.459548643162172 18.717274333073394 A 0.6154080490627645 0.6154080490627645 0 1 0 13.310400308057348 19.135530121808113 L 13.310400308057348 19.135530121808113 L 13.324757746133631 19.21163840418365 L 13.333453556811453 19.28933669912459 L 13.338361897917299 19.36807488270871 L 13.340128716109673 19.447651569301193 L 13.339115869830215 19.527945993545988 L 13.335560007191479 19.60887289325445 L 13.329629457787453 19.690366355218377 L 13.321450540155835 19.77237234664809 L 13.311121647670365 19.854844717409957 L 13.298721561724957 19.93774284165786 L 13.284314713733444 20.021030125975784 L 13.267954697132213 20.104673014508435 L 13.24968671106264 20.18864029749098 L 13.229549318876616 20.272902614369073 L 13.207575749214364 20.357432086830766 L 13.183794881367962 20.44220204150483 L 13.158232006535144 20.527186796310655 L 13.13090942612 20.612361493091477 L 13.101846929057718 20.697701964609756 L 13.071062177677712 20.783184627522516 L 13.070933151533081 20.7832119409671 A 10 10 0 0 1 12.400014949598422 20.90151292181659 L 12.399884362934191 20.901531385114744 L 12.34171936660839 20.83173296264973 L 12.285221392277188 20.76147911072026 L 12.230415103079551 20.690785949547255 L 12.177327360213893 20.61966942069106 L 12.125987622135412 20.54814525564872 L 12.076428438584877 20.476228937582803 L 12.028686070050199 20.403935653963806 L 11.982801276183645 20.331280236971452 L 11.938820336583422 20.258277087058865 L 11.896796398917392 20.184940072794944 L 11.856791301320682 20.111282396334495 L 11.818878105202815 20.037316407399125 L 11.783144735716014 19.963053336973 L 11.749699436662837 19.888502899480365 L 11.718679388943498 19.813672665650593 L 11.690265314280245 19.738567001527173 L 11.664708750544147 19.66318508893824 L 11.642391037626968 19.587516647321642 L 11.623988044780805 19.511529990503632 L 11.611449057748127 19.43510106614601 L 11.611449057748127 19.43510106614601 A 0.6154080490627645 0.6154080490627645 0 0 0 10.388550942251873 19.43510106614601 L 10.388550942251873 19.43510106614601 L 10.376011955219196 19.511529990503632 L 10.357608962373034 19.587516647321642 L 10.335291249455855 19.66318508893824 L 10.309734685719757 19.738567001527173 L 10.281320611056502 19.813672665650593 L 10.250300563337165 19.888502899480365 L 10.216855264283987 19.963053336973 L 10.181121894797185 20.037316407399125 L 10.143208698679318 20.111282396334495 L 10.10320360108261 20.184940072794944 L 10.06117966341658 20.258277087058865 L 10.017198723816357 20.331280236971452 L 9.971313929949801 20.403935653963806 L 9.923571561415125 20.476228937582803 L 9.87401237786459 20.54814525564872 L 9.82267263978611 20.61966942069106 L 9.769584896920449 20.690785949547255 L 9.714778607722813 20.76147911072026 L 9.658280633391612 20.83173296264973 L 9.60011563706581 20.901531385114744 L 9.59998505040158 20.90151292181659 A 10 10 0 0 1 8.92906684846692 20.7832119409671 L 8.92893782232229 20.783184627522516 L 8.898153070942282 20.697701964609756 L 8.869090573880001 20.612361493091477 L 8.841767993464858 20.527186796310655 L 8.816205118632038 20.44220204150483 L 8.792424250785638 20.357432086830766 L 8.770450681123386 20.272902614369077 L 8.750313288937361 20.18864029749098 L 8.732045302867789 20.104673014508435 L 8.715685286266558 20.021030125975784 L 8.701278438275043 19.93774284165786 L 8.688878352329635 19.854844717409957 L 8.678549459844167 19.77237234664809 L 8.670370542212549 19.690366355218377 L 8.664439992808521 19.60887289325445 L 8.660884130169785 19.527945993545988 L 8.659871283890329 19.447651569301193 L 8.661638102082703 19.36807488270871 L 8.66654644318855 19.289336699124593 L 8.67524225386637 19.21163840418365 L 8.689599691942652 19.135530121808113 L 8.689599691942654 19.135530121808117 A 0.6154080490627645 0.6154080490627645 0 0 0 7.5404513568378295 18.717274333073398 L 7.540451356837831 18.717274333073394 L 7.502528331588073 18.78480544316478 L 7.459246207754424 18.849915349603993 L 7.4123942863663945 18.913387318446844 L 7.362596839463107 18.975482285855463 L 7.310208693167526 19.03634033832267 L 7.255465935929683 19.096048275697257 L 7.198539883893215 19.15466380570971 L 7.139562034279706 19.212226732832654 L 7.078637425520436 19.268764950054184 L 7.015852521454949 19.324297975874522 L 6.951280201204191 19.378839193825154 L 6.884983089010301 19.432397347826477 L 6.817015870674507 19.484977583259607 L 6.747426960038775 19.536582196679824 L 6.6762597315518075 19.587211191019403 L 6.6035534533473434 19.63686269654166 L 6.529344007730086 19.685533296499983 L 6.453664457081873 19.73321828350776 L 6.376545495007393 19.779911864469305 L 6.298015810716606 19.825607326622286 L 6.297899414211741 19.82554531352764 A 10 10 0 0 1 5.707903849128497 19.484911215206147 L 5.707791945960734 19.484841419423343 L 5.708100534877494 19.393984986799857 L 5.709978881146617 19.3038512160491 L 5.713435515950376 19.21446830913687 L 5.718480769123087 19.125865744052398 L 5.725127095139271 19.03807450735159 L 5.73338947616192 18.951127382395153 L 5.743285927018439 18.865059311252814 L 5.754838137472599 18.77990785583289 L 5.768072303320598 18.695713795474774 L 5.78302022349381 18.612521916780995 L 5.799720782570494 18.530382081975944 L 5.8182220105893885 18.449350714464025 L 5.838584042987298 18.369492934876675 L 5.860883555016137 18.29088576266971 L 5.885220766971177 18.213623175541244 L 5.911731313284836 18.137824683758488 L 5.940608409056225 18.063651345992326 L 5.9721507858083305 17.991340407432755 L 6.006896556905891 17.921302035443468 L 6.046418701165916 17.854694177143124 L 6.0464187011659165 17.854694177143124 A 0.6154080490627645 0.6154080490627645 0 0 0 5.109624395289341 17.068630420593113 L 5.109624395289341 17.068630420593113 L 5.050891408351868 17.119118467888207 L 4.987950616441186 17.165498408312168 L 4.922215519762418 17.20911824819233 L 4.854183496720522 17.25043670092704 L 4.7841400624025585 17.289706762441295 L 4.712277380086147 17.32709074491801 L 4.638736697081033 17.36270146945769 L 4.563627966424563 17.396621314728108 L 4.487040351991722 17.428912416823664 L 4.409048427494254 17.459622689509782 L 4.32971609946696 17.488789635319634 L 4.2490992248511565 17.516442889602956 L 4.16724743166673 17.542605991082 L 4.084205428575552 17.56729765632198 L 4.000013973224108 17.59053272301349 L 3.914710605075509 17.612322864671494 L 3.828330211062866 17.632677143075426 L 3.7409054696834643 17.65160244272938 L 3.6524672048465527 17.66910381773517 L 3.563044671490956 17.68518477244728 L 3.562956504281768 17.685086689250568 A 10 10 0 0 1 3.1250457486061602 17.16320497293852 L 3.124964465588808 17.16310111321898 L 3.1563291744246857 17.0778295375573 L 3.1889218077437187 16.99377393055938 L 3.2227407365945506 16.91096371124057 L 3.2577855857801543 16.829430112861235 L 3.2940574606520503 16.74920651294046 L 3.3315592272685093 16.670328841961926 L 3.3702958631382174 16.592836096164554 L 3.410274903042869 16.516770990532528 L 3.451507015623344 16.442180804600135 L 3.494006764180585 16.369118499882337 L 3.5377936343807157 16.297644230852484 L 3.582893461755849 16.227827445408067 L 3.629340482564503 16.15974990445662 L 3.677180405769782 16.093510207093086 L 3.7264752653778253 16.029230940826643 L 3.7773116411451797 15.96707079828153 L 3.8298160105650085 15.907247208558164 L 3.8841879468111697 15.850085281409221 L 3.940792825541137 15.796154493689777 L 4.000712722102418 15.747080950202943 L 4.000712722102418 15.747080950202944 A 0.6154080490627645 0.6154080490627645 0 0 0 3.389263664354291 14.688020115943072 L 3.3892636643542904 14.68802011594307 L 3.3168047807603322 14.715375496813857 L 3.2417969091842025 14.737431365912425 L 3.16510726002086 14.755937880380076 L 3.087046326864935 14.771496203245649 L 3.0077958764343267 14.784441724823951 L 2.927480969106943 14.794992692387284 L 2.8461957468484904 14.803303432516385 L 2.7640153565530348 14.809488961991061 L 2.6810023330600323 14.81363816548201 L 2.5972103652631944 14.815821572912608 L 2.5126866790399216 14.816096282458732 L 2.427473626859225 14.814509246438925 L 2.3416097930880184 14.811099557799253 L 2.25513078868363 14.805900095620881 L 2.16806983851664 14.798938742708264 L 2.080458225566261 14.790239307829827 L 1.992325633514998 14.77982223830669 L 1.9037004154665311 14.767705180160881 L 1.8146098078162982 14.753903425092437 L 1.7250801026546156 14.73843027189577 L 1.7250307990077403 14.738307948878077 A 10 10 0 0 1 1.492023352748685 14.098125251716535 L 1.4919824938132464 14.097999855075242 L 1.5506202757888339 14.028598146874588 L 1.6099960435634628 13.960759050362102 L 1.6700982045277222 13.894509653235232 L 1.7309157237075485 13.82987917683334 L 1.792438224009743 13.76689936381728 L 1.8546561096989382 13.7056049580471 L 1.9175607206040883 13.646034306408986 L 1.9811445277189446 13.58823012490548 L 2.0454013857335163 13.532240490656154 L 2.110326865769297 13.478120152148081 L 2.175918704321356 13.425932300586295 L 2.242177426268725 13.375751031919986 L 2.3091072392935796 13.327664885760688 L 2.376717372894669 13.281782148336442 L 2.445024192572342 13.238239231104696 L 2.5140547806108486 13.197214868374159 L 2.5838536218451207 13.158956634516384 L 2.6544970596297333 13.123838290812426 L 2.7261336622182366 13.092519936295446 L 2.799224087231991 13.066899701215002 L 2.799224087231991 13.066899701215004 A 0.6154080490627645 0.6154080490627645 0 0 0 2.5868700580037434 11.862580155930274 L 2.5868700580037434 11.862580155930273 L 2.509424888493962 11.863503407721316 L 2.4313969935627515 11.858574942171238 L 2.3530026954226138 11.849735972454516 L 2.2743281527479393 11.837657602096975 L 2.1954294601386994 11.82271716278143 L 2.116349490945817 11.805162513027545 L 2.0371239268805095 11.785170870833035 L 1.9577840448690917 11.762876018368631 L 1.878358208090928 11.738382868078242 L 1.7988727449487545 11.71177605909353 L 1.7193525045247853 11.683125398350384 L 1.6398212264828977 11.65248949199359 L 1.5603017976929419 11.619918272006794 L 1.4808164362006906 11.585454814284674 L 1.4013868266910752 11.549136683667816 L 1.3220342224704265 11.510996952489261 L 1.2427795236804577 11.471064987363118 L 1.1636433382284856 11.429367067458664 L 1.084646029884885 11.385926877669448 L 1.0058077566773367 11.340765907198945 L 1.0058032633402352 11.340634098321496 A 10 10 0 0 1 1.0058032633402352 10.659365901678505 L 1.0058077566773367 10.659234092801057 L 1.084646029884885 10.614073122330556 L 1.1636433382284856 10.57063293254134 L 1.2427795236804577 10.528935012636884 L 1.3220342224704265 10.489003047510742 L 1.4013868266910752 10.450863316332185 L 1.4808164362006906 10.414545185715328 L 1.5603017976929419 10.38008172799321 L 1.6398212264828977 10.347510508006412 L 1.7193525045247853 10.316874601649618 L 1.7988727449487545 10.288223940906473 L 1.8783582080909262 10.26161713192176 L 1.9577840448690917 10.23712398163137 L 2.0371239268805095 10.214829129166967 L 2.116349490945817 10.194837486972457 L 2.1954294601386994 10.177282837218572 L 2.2743281527479393 10.162342397903029 L 2.3530026954226138 10.150264027545486 L 2.4313969935627515 10.141425057828764 L 2.5094248884939603 10.136496592278686 L 2.5868700580037434 10.13741984406973 L 2.5868700580037434 10.137419844069731 A 0.6154080490627645 0.6154080490627645 0 0 0 2.7992240872319907 8.933100298785002 L 2.799224087231991 8.933100298785 L 2.7261336622182366 8.907480063704554 L 2.6544970596297333 8.876161709187576 L 2.5838536218451207 8.841043365483618 L 2.5140547806108486 8.802785131625843 L 2.445024192572342 8.761760768895307 L 2.376717372894669 8.71821785166356 L 2.3091072392935796 8.672335114239313 L 2.242177426268725 8.624248968080016 L 2.175918704321356 8.574067699413707 L 2.110326865769295 8.52187984785192 L 2.0454013857335163 8.46775950934385 L 1.9811445277189428 8.411769875094521 L 1.9175607206040883 8.353965693591018 L 1.8546561096989365 8.294395041952901 L 1.792438224009743 8.233100636182723 L 1.7309157237075468 8.170120823166663 L 1.6700982045277222 8.10549034676477 L 1.6099960435634628 8.0392409496379 L 1.5506202757888339 7.971401853125415 L 1.4919824938132464 7.90200014492476 L 1.4920233527486833 7.901874748283468 A 10 10 0 0 1 1.7250307990077403 7.261692051121926 L 1.7250801026546139 7.2615697281042335 L 1.8146098078162964 7.246096574907566 L 1.9037004154665293 7.232294819839121 L 1.9923256335149961 7.2201777616933125 L 2.080458225566259 7.209760692170175 L 2.16806983851664 7.201061257291737 L 2.25513078868363 7.1940999043791205 L 2.3416097930880166 7.188900442200749 L 2.427473626859223 7.185490753561077 L 2.5126866790399216 7.18390371754127 L 2.5972103652631926 7.184178427087394 L 2.6810023330600306 7.186361834517992 L 2.7640153565530348 7.190511038008941 L 2.8461957468484886 7.196696567483617 L 2.9274809691069414 7.205007307612718 L 3.0077958764343258 7.2155582751760505 L 3.087046326864934 7.228503796754353 L 3.165107260020859 7.244062119619926 L 3.2417969091842016 7.262568634087577 L 3.3168047807603314 7.284624503186144 L 3.3892636643542886 7.311979884056932 L 3.389263664354288 7.311979884056934 A 0.6154080490627645 0.6154080490627645 0 0 0 4.000712722102415 6.252919049797061 L 4.000712722102416 6.252919049797059 L 3.940792825541136 6.203845506310226 L 3.884187946811169 6.1499147185907805 L 3.8298160105650076 6.092752791441836 L 3.777311641145178 6.0329292017184715 L 3.7264752653778235 5.970769059173357 L 3.6771804057697803 5.906489792906917 L 3.629340482564502 5.840250095543381 L 3.582893461755848 5.772172554591937 L 3.537793634380713 5.702355769147516 L 3.4940067641805834 5.630881500117665 L 3.451507015623342 5.557819195399869 L 3.4102749030428683 5.483229009467473 L 3.3702958631382165 5.407163903835447 L 3.3315592272685075 5.329671158038077 L 3.2940574606520494 5.250793487059543 L 3.2577855857801534 5.1705698871387655 L 3.222740736594548 5.0890362887594325 L 3.188921807743718 5.006226069440621 L 3.156329174424685 4.922170462442704 L 3.124964465588807 4.836898886781022 L 3.1250457486061585 4.836795027061484 A 10 10 0 0 1 3.5629565042817664 4.314913310749432 L 3.563044671490955 4.314815227552725 L 3.65246720484655 4.33089618226483 L 3.7409054696834625 4.348397557270622 L 3.8283302110628634 4.367322856924578 L 3.9147106050755074 4.387677135328507 L 4.000013973224107 4.409467276986513 L 4.08420542857555 4.432702343678023 L 4.167247431666727 4.457394008918002 L 4.249099224851155 4.483557110397044 L 4.329716099466959 4.51121036468037 L 4.409048427494252 4.540377310490219 L 4.487040351991721 4.571087583176336 L 4.563627966424561 4.603378685271894 L 4.638736697081032 4.637298530542312 L 4.712277380086145 4.672909255081992 L 4.784140062402556 4.710293237558706 L 4.8541834967205215 4.749563299072964 L 4.922215519762417 4.790881751807672 L 4.987950616441184 4.834501591687833 L 5.050891408351867 4.880881532111797 L 5.109624395289339 4.931369579406887 L 5.109624395289337 4.931369579406888 A 0.6154080490627645 0.6154080490627645 0 0 0 6.046418701165913 4.145305822856878 L 6.046418701165911 4.145305822856879 L 6.006896556905887 4.078697964556538 L 5.972150785808329 4.008659592567246 L 5.94060840905622 3.936348654007676 L 5.911731313284827 3.862175316241516 L 5.885220766971174 3.7863768244587597 L 5.860883555016129 3.7091142373302946 L 5.8385840429872955 3.630507065123327 L 5.818222010589388 3.550649285535976 L 5.79972078257049 3.469617918024057 L 5.783020223493804 3.3874780832190083 L 5.768072303320593 3.3042862045252326 L 5.754838137472594 3.2200921441671158 L 5.743285927018434 3.1349406887471893 L 5.733389476161915 3.048872617604851 L 5.725127095139269 2.9619254926484135 L 5.718480769123081 2.874134255947604 L 5.71343551595037 2.7855316908631362 L 5.709978881146615 2.6961487839509033 L 5.708100534877488 2.606015013200146 L 5.707791945960725 2.5151585805766636 L 5.707903849128492 2.515088784793857 A 10 10 0 0 1 6.297899414211734 2.1744546864723624 L 6.298015810716604 2.1743926733777137 L 6.376545495007388 2.2200881355306983 L 6.453664457081863 2.2667817164922432 L 6.52934400773008 2.3144667035000186 L 6.603553453347338 2.3631373034583447 L 6.676259731551798 2.4127888089806007 L 6.747426960038768 2.463417803320178 L 6.817015870674501 2.515022416740397 L 6.884983089010296 2.5676026521735267 L 6.951280201204185 2.6211608061748475 L 7.015852521454943 2.6757020241254796 L 7.07863742552043 2.7312350499458162 L 7.139562034279697 2.787773267167349 L 7.198539883893205 2.8453361942902955 L 7.255465935929681 2.903951724302745 L 7.310208693167517 2.963659661677333 L 7.362596839463105 3.0245177141445385 L 7.4123942863663865 3.086612681553161 L 7.459246207754415 3.1500846503960114 L 7.502528331588068 3.215194556835221 L 7.540451356837826 3.2827256669266074 L 7.540451356837824 3.282725666926607 A 0.6154080490627645 0.6154080490627645 0 0 0 8.689599691942647 2.8644698781918874 L 8.689599691942652 2.864469878191887 L 8.675242253866369 2.788361595816351 L 8.666546443188553 2.7106633008754066 L 8.661638102082705 2.6319251172912868 L 8.659871283890324 2.5523484306988067 L 8.66088413016979 2.4720540064540106 L 8.664439992808521 2.391127106745552 L 8.670370542212552 2.3096336447816235 L 8.678549459844168 2.2276276533519077 L 8.688878352329635 2.145155282590043 L 8.701278438275043 2.0622571583421383 L 8.715685286266558 1.9789698740242176 L 8.732045302867789 1.8953269854915646 L 8.750313288937361 1.8113597025090193 L 8.770450681123387 1.7270973856309233 L 8.79242425078564 1.6425679131692341 L 8.81620511863204 1.5577979584951684 L 8.841767993464858 1.4728132036893449 L 8.869090573880005 1.3876385069085213 L 8.898153070942282 1.302298035390244 L 8.928937822322286 1.2168153724774857 L 8.929066848466917 1.2167880590329005 A 10 10 0 0 1 9.599985050401582 1.0984870781834086 L 9.600115637065812 1.0984686148852543 L 9.658280633391612 1.1682670373502688 L 9.714778607722808 1.2385208892797408 L 9.769584896920449 1.309214050452745 L 9.822672639786106 1.3803305793089393 L 9.874012377864588 1.4518547443512801 L 9.923571561415123 1.523771062417195 L 9.971313929949801 1.5960643460361954 L 10.017198723816357 1.6687197630285482 L 10.06117966341658 1.7417229129411371 L 10.103203601082608 1.8150599272050574 L 10.143208698679318 1.8887176036655067 L 10.181121894797183 1.962683592600877 L 10.216855264283984 2.036946663026999 L 10.250300563337166 2.1114971005196335 L 10.281320611056499 2.186327334349407 L 10.30973468571976 2.2614329984728254 L 10.335291249455853 2.3368149110617615 L 10.35760896237303 2.4124833526783576 L 10.376011955219196 2.4884700094963694 L 10.388550942251873 2.564898933853989 L 10.388550942251872 2.5648989338539896 A 0.6154080490627645 0.6154080490627645 0 0 0 11.611449057748125 2.5648989338539896 L 11.611449057748123 2.564898933853989 L 11.623988044780802 2.4884700094963694 L 11.642391037626966 2.4124833526783576 L 11.664708750544145 2.3368149110617598 L 11.690265314280236 2.2614329984728236 L 11.718679388943498 2.186327334349407 L 11.74969943666283 2.1114971005196335 L 11.783144735716013 2.036946663026999 L 11.818878105202813 1.962683592600877 L 11.856791301320678 1.8887176036655067 L 11.896796398917388 1.8150599272050556 L 11.938820336583419 1.7417229129411371 L 11.98280127618364 1.6687197630285482 L 12.028686070050195 1.5960643460361954 L 12.076428438584873 1.523771062417195 L 12.125987622135408 1.4518547443512784 L 12.17732736021389 1.3803305793089393 L 12.230415103079547 1.3092140504527432 L 12.285221392277188 1.2385208892797408 L 12.341719366608384 1.168267037350267 L 12.399884362934184 1.0984686148852525 L 12.400014949598415 1.0984870781834086 A 10 10 0 0 1 13.070933151533078 1.2167880590328988 L 13.07106217767771 1.216815372477484 L 13.101846929057714 1.3022980353902422 L 13.130909426119992 1.3876385069085195 L 13.158232006535139 1.4728132036893449 L 13.183794881367957 1.5577979584951684 L 13.207575749214357 1.6425679131692341 L 13.229549318876611 1.7270973856309233 L 13.249686711062635 1.8113597025090176 L 13.267954697132208 1.8953269854915629 L 13.28431471373344 1.9789698740242176 L 13.298721561724953 2.0622571583421383 L 13.311121647670362 2.145155282590041 L 13.321450540155828 2.2276276533519077 L 13.329629457787444 2.3096336447816217 L 13.335560007191475 2.391127106745552 L 13.339115869830207 2.4720540064540106 L 13.340128716109673 2.552348430698805 L 13.338361897917293 2.6319251172912868 L 13.333453556811444 2.7106633008754066 L 13.324757746133628 2.7883615958163492 L 13.310400308057345 2.864469878191887 L 13.310400308057343 2.864469878191885 A 0.6154080490627645 0.6154080490627645 0 0 0 14.459548643162167 3.2827256669266034 L 14.459548643162172 3.2827256669266056 L 14.49747166841193 3.21519455683522 L 14.540753792245582 3.1500846503960096 L 14.58760571363361 3.0866126815531594 L 14.637403160536891 3.0245177141445367 L 14.689791306832479 2.9636596616773314 L 14.744534064070315 2.903951724302745 L 14.801460116106792 2.8453361942902937 L 14.860437965720301 2.7877732671673474 L 14.921362574479566 2.7312350499458145 L 14.984147478545054 2.675702024125478 L 15.048719798795812 2.6211608061748457 L 15.115016910989702 2.567602652173525 L 15.182984129325497 2.515022416740395 L 15.252573039961227 2.4634178033201746 L 15.323740268448198 2.4127888089806007 L 15.396446546652658 2.363137303458343 L 15.470655992269917 2.314466703500017 L 15.546335542918133 2.2667817164922432 L 15.623454504992608 2.2200881355306983 L 15.701984189283392 2.174392673377712 L 15.702100585788262 2.1744546864723606 A 10 10 0 0 1 16.292096150871505 2.515088784793857 L 16.29220805403927 2.51515858057666 L 16.29189946512251 2.6060150132001425 L 16.29002111885338 2.6961487839508997 L 16.286564484049627 2.7855316908631345 L 16.281519230876917 2.8741342559476024 L 16.27487290486073 2.9619254926484118 L 16.266610523838082 3.0488726176048484 L 16.256714072981563 3.1349406887471876 L 16.245161862527404 3.220092144167114 L 16.231927696679406 3.30428620452523 L 16.216979776506193 3.3874780832190066 L 16.200279217429507 3.4696179180240554 L 16.181777989410612 3.5506492855359753 L 16.1614159570127 3.630507065123325 L 16.139116444983866 3.7091142373302928 L 16.114779233028823 3.786376824458757 L 16.08826868671517 3.8621753162415144 L 16.059391590943775 3.9363486540076744 L 16.02784921419167 4.008659592567244 L 15.99310344309411 4.078697964556536 L 15.953581298834086 4.145305822856877 L 15.953581298834084 4.1453058228568755 A 0.6154080490627645 0.6154080490627645 0 0 0 16.89037560471066 4.931369579406887 L 16.89037560471066 4.931369579406885 L 16.94910859164813 4.880881532111795 L 17.012049383558818 4.834501591687833 L 17.077784480237582 4.79088175180767 L 17.145816503279473 4.749563299072959 L 17.215859937597443 4.710293237558706 L 17.28772261991385 4.672909255081986 L 17.36126330291897 4.637298530542312 L 17.436372033575438 4.6033786852718945 L 17.512959648008277 4.571087583176334 L 17.590951572505745 4.540377310490216 L 17.67028390053304 4.511210364680368 L 17.750900775148843 4.483557110397042 L 17.83275256833327 4.4573940089179995 L 17.915794571424446 4.43270234367802 L 17.999986026775893 4.409467276986514 L 18.08528939492449 4.387677135328503 L 18.171669788937134 4.367322856924575 L 18.25909453031654 4.348397557270622 L 18.347532795153448 4.330896182264828 L 18.43695532850904 4.314815227552719 L 18.437043495718232 4.31491331074943 A 10 10 0 0 1 18.874954251393838 4.836795027061481 L 18.875035534411197 4.8368988867810225 L 18.843670825575312 4.922170462442701 L 18.81107819225628 5.006226069440614 L 18.777259263405448 5.08903628875943 L 18.742214414219845 5.170569887138762 L 18.705942539347948 5.2507934870595365 L 18.66844077273149 5.329671158038074 L 18.629704136861783 5.407163903835444 L 18.58972509695713 5.483229009467469 L 18.548492984376654 5.5578191953998655 L 18.505993235819414 5.6308815001176615 L 18.462206365619284 5.7023557691475135 L 18.41710653824415 5.772172554591931 L 18.370659517435495 5.840250095543376 L 18.322819594230218 5.906489792906917 L 18.27352473462217 5.970769059173351 L 18.22268835885482 6.032929201718472 L 18.170183989434992 6.092752791441833 L 18.115812053188826 6.149914718590774 L 18.059207174458862 6.203845506310223 L 17.999287277897583 6.2529190497970575 L 17.999287277897583 6.252919049797055 A 0.6154080490627645 0.6154080490627645 0 0 0 18.610736335645708 7.311979884056928 L 18.610736335645708 7.3119798840569254 L 18.683195219239664 7.284624503186137 L 18.758203090815798 7.262568634087574 L 18.83489273997914 7.244062119619921 L 18.91295367313506 7.228503796754344 L 18.992204123565674 7.215558275176047 L 19.072519030893055 7.205007307612707 L 19.15380425315151 7.196696567483614 L 19.23598464344696 7.190511038008938 L 19.318997666939964 7.186361834517985 L 19.402789634736806 7.184178427087387 L 19.487313320960077 7.183903717541263 L 19.572526373140775 7.185490753561069 L 19.65839020691198 7.188900442200742 L 19.744869211316367 7.1940999043791125 L 19.831930161483356 7.201061257291734 L 19.91954177443374 7.209760692170168 L 20.007674366485 7.220177761693305 L 20.09629958453347 7.232294819839117 L 20.1853901921837 7.2460965749075585 L 20.27491989734538 7.261569728104222 L 20.274969200992256 7.261692051121919 A 10 10 0 0 1 20.50797664725131 7.901874748283461 L 20.508017506186754 7.902000144924757 L 20.449379724211163 7.971401853125407 L 20.390003956436534 8.03924094963789 L 20.329901795472274 8.105490346764762 L 20.269084276292453 8.170120823166656 L 20.207561775990253 8.233100636182712 L 20.14534389030106 8.294395041952894 L 20.082439279395906 8.353965693591011 L 20.018855472281054 8.411769875094514 L 19.95459861426648 8.467759509343843 L 19.8896731342307 8.521879847851913 L 19.824081295678642 8.5740676994137 L 19.75782257373127 8.624248968080005 L 19.69089276070642 8.672335114239303 L 19.623282627105333 8.718217851663557 L 19.554975807427656 8.761760768895297 L 19.48594521938915 8.80278513162584 L 19.416146378154878 8.84104336548361 L 19.345502940370263 8.876161709187565 L 19.27386633778176 8.907480063704549 L 19.20077591276801 8.933100298784993 L 19.200775912768005 8.933100298784991 A 0.6154080490627645 0.6154080490627645 0 0 0 19.413129941996253 10.13741984406972Z" fill="none" stroke="black" stroke-width="0.1"></path></svg>