<?xml version="1.0" encoding="UTF-8" standalone="no"?>
<!DOCTYPE svg PUBLIC "-//W3C//DTD SVG 1.1//EN" "http://www.w3.org/Graphics/SVG/1.1/DTD/svg11.dtd">
<svg width="64" height="64"><circle cx="32" cy="32" r="4" fill="none" stroke="black" stroke-width="0.1"></circle><circle cx="32" cy="32" r="31" fill="none" stroke="red" stroke-width="0.1"></circle><circle cx="32" cy="32" r="30" fill="none" stroke="green" stroke-width="0.1"></circle><circle cx="32" cy="32" r="28.190778623577252" fill="none" stroke="blue" stroke-width="0.1"></circle><circle cx="32" cy="32" r="28.75" fill="none" stroke="orange" stroke-width="0.1"></circle><path d="M 60.589987137248315 30.87374954809764 L 60.7313659049319 30.89458749732637 L 60.872859696013606 30.919132691821865 L 61.01444458844216 30.94703152424753 L 61.1561006555229 30.97802798542786 L 61.29781043557209 31.0119264271391 L 61.439558110550806 31.04857157186411 L 61.581329020207775 31.08783668428019 L 61.7231093538891 31.129616064739913 L 61.86488594443965 31.173820026262067 L 62.00664612454557 31.22037139047869 L 62.14837762319989 31.269202959615935 L 62.29006848900545 31.320255641314393 L 62.43170703203634 31.37347702489271 L 62.57328177889822 31.42882027867974 L 62.71478143740456 31.486243281246388 L 62.85619486840537 31.545707926617037 L 62.997511063033976 31.607179561267113 L 62.9975113294445 31.60720058431829 A 31 31 0 0 1 62.9975113294445 32.39279941568171 L 62.997511063033976 32.39282043873289 L 62.85619486840537 32.45429207338296 L 62.71478143740456 32.51375671875361 L 62.57328177889822 32.571179721320256 L 62.43170703203634 32.62652297510729 L 62.29006848900545 32.67974435868561 L 62.14837762319989 32.73079704038407 L 62.00664612454557 32.77962860952131 L 61.86488594443965 32.826179973737936 L 61.7231093538891 32.87038393526009 L 61.581329020207775 32.91216331571981 L 61.439558110550806 32.95142842813589 L 61.29781043557209 32.9880735728609 L 61.1561006555229 33.021972014572135 L 61.01444458844216 33.05296847575247 L 60.872859696013606 33.080867308178135 L 60.7313659049319 33.10541250267363 L 60.589987137248315 33.12625045190236 L 60.5510934252826 33.868386686213235 A 28.612161830040634 28.612161830040634 0 0 0 60.589987137248315 33.12625045190236 L 60.5510934252826 33.868386686213235 L 60.68951954647358 33.90388858830042 L 60.82767254830179 33.94308945019595 L 60.96556560179493 33.98563510112596 L 61.10320564966457 34.03126885145322 L 61.24059577669206 34.07979429949245 L 61.377736482411606 34.13105536491769 L 61.514626434330864 34.18492447426208 L 61.651262946073835 34.241295063305486 L 61.78764229745877 34.30007656003886 L 61.92375995790087 34.361190884790574 L 62.05961074769509 34.42456992523371 L 62.19518895774878 34.49015366346181 L 62.33048844058264 34.55788875397473 L 62.4655026808974 34.627727422353836 L 62.600224851254595 34.69962659756072 L 62.73464785668469 34.77354721801006 L 62.868764370908444 34.849453669273004 L 62.86876243835231 34.849474605005184 A 31 31 0 0 1 62.78664499976503 35.63076984377184 L 62.78664253730669 35.630790723809056 L 62.63967495207389 35.67715404575328 L 62.4928204506451 35.72151120894677 L 62.346093603858904 35.76382890044053 L 62.199509473002955 35.80407038736567 L 62.05308369129225 35.842194959393616 L 61.906832564511305 35.87815724069828 L 61.760773196955356 35.9119063296395 L 61.614923651384096 35.94338470683318 L 61.46930315566266 35.9725268252914 L 61.32393237504822 35.999257253532235 L 61.1788337794072 36.02348817223162 L 61.034032152359 36.04511590438229 L 60.88955532129302 36.06401594134445 L 60.74543524851555 36.08003550966273 L 60.60170975086157 36.09298185813779 L 60.45842540611093 36.10260246294595 L 60.31564296729889 36.108548154383854 L 60.19938795904909 36.84255338880963 A 28.612161830040634 28.612161830040634 0 0 0 60.31564296729889 36.108548154383854 L 60.19938795904909 36.84255338880963 L 60.33334480819617 36.89233027748675 L 60.46664338757246 36.94575731393608 L 60.59933381698015 37.00248364431559 L 60.731449832471185 37.06225471087171 L 60.86301503149454 37.124875510275615 L 60.99404622568453 37.19019086944124 L 61.12455542490677 37.25807377447912 L 61.2545510964957 37.32841796413634 L 61.38403900800203 37.401132973701905 L 61.513022815208075 37.47614067765773 L 61.64150448646059 37.553372795376745 L 61.7694846175215 37.63276904097419 L 61.89696267071116 37.71427571859557 L 62.023937160208376 37.79784463450131 L 62.15040579812555 37.88343223993899 L 62.27636561140763 37.9709989456805 L 62.40181303663101 38.06050856659182 L 62.4018089262817 38.06052918562875 A 31 31 0 0 1 62.23847374494848 38.82896079766616 L 62.23846911342155 38.82898130592337 L 62.08746034520331 38.859728348904355 L 61.93677374199545 38.88849204355843 L 61.78642727696736 38.91524078249574 L 61.6364397685297 38.93993960840717 L 61.48683101964518 38.96254966809553 L 61.337621989838865 38.98302753872683 L 61.18883501037712 39.001324385391136 L 61.040494057482775 39.01738489187406 L 60.89262510521462 39.03114588012014 L 60.745256590360285 39.042534491976575 L 60.5984200393129 39.05146573794335 L 60.45215093712284 39.057839099560354 L 60.306489973434935 39.06153365901338 L 60.161484904637156 39.06240082072681 L 60.01719348838655 39.06025284234818 L 59.87368844323224 39.05484345210948 L 59.73106668757052 39.04583174351695 L 59.538724097234926 39.76366406310878 A 28.612161830040634 28.612161830040634 0 0 0 59.73106668757052 39.04583174351695 L 59.538724097234926 39.76366406310878 L 59.666744015066584 39.827170572367 L 59.7937277248608 39.894238425578465 L 59.91976174607117 39.964523929861095 L 60.044906238470844 40.037777448333 L 60.169205053637775 40.11380751251906 L 60.29269113111461 40.19246155668192 L 60.41538969154235 40.273614518100295 L 60.53732026319598 40.35716160270897 L 60.65849803816815 40.44301344424534 L 60.778934818554774 40.53109272730437 L 60.89863969918884 40.62133175105567 L 61.01761957415948 40.71367062214095 L 61.13587952147772 40.80805588265441 L 61.25342310107934 40.90443944755619 L 61.3702525896942 41.002777767509144 L 61.48636916875516 41.1030311593902 L 61.60177307673586 41.2051632638121 L 61.60176683362724 41.2051833402473 A 31 31 0 0 1 61.35900344397484 41.95233222800934 L 61.35899669412329 41.952352139793774 L 61.20560122658483 41.9671460327744 L 61.052733475555854 41.98000111783122 L 60.90041461961873 41.990887839430755 L 60.74866702812871 41.99977339882324 L 60.59751445683078 42.00662122562659 L 60.446982289353656 42.01139032574863 L 60.29709783926879 42.01403446605511 L 60.147890733573604 42.014501139557375 L 59.99939340794336 42.01273022932442 L 59.85164175913671 42.00865224878173 L 59.70467602466374 42.00218596941611 L 59.55854200222419 41.99323513261585 L 59.41329279791406 41.98168373619324 L 59.26899143897397 41.967388990496616 L 59.1257149910781 41.9501702189649 L 58.98356151682519 41.929790100090784 L 58.84266303811434 41.905919725632984 L 58.57634021136295 42.59971440928136 A 28.612161830040634 28.612161830040634 0 0 0 58.84266303811434 41.905919725632984 L 58.57634021136295 42.59971440928136 L 58.69702058486952 42.67625474851566 L 58.81629816498411 42.756228609054624 L 58.93429492288648 42.83930322454726 L 59.05109678294789 42.92523661405728 L 59.166767370428225 43.013842941731966 L 59.28135539188595 43.104973920724795 L 59.394899002414824 43.19850780969601 L 59.50742857727449 43.294342429913826 L 59.61896856665183 43.39239049267946 L 59.72953878965011 43.492576339784726 L 59.83915536794363 43.59483359194037 L 59.94783141841571 43.69910340451874 L 60.0555775791322 43.80533314325869 L 60.16240241678254 43.913475358649904 L 60.2683127477697 44.0234869779061 L 60.37331389507038 44.13532865878588 L 60.47740989644274 44.248964266009814 L 60.477401588975596 44.248983579881646 A 31 31 0 0 1 60.15786975750257 44.96666382380303 L 60.15786096327918 44.96668292095702 L 60.00375942926292 44.965361578949974 L 59.85038538148273 44.96216721140756 L 59.69776297189699 44.95707263846928 L 59.545917875722196 44.950047579294676 L 59.394877541212715 44.941058146989576 L 59.24467149799255 44.93006622534342 L 59.095331742685005 44.917028689537545 L 58.946893228462585 44.901896417086604 L 58.799394497244904 44.88461301083771 L 58.652878512469286 44.8651131171041 L 58.5073937819122 44.84332015831596 L 58.362995914153515 44.8191431903395 L 58.21974984989892 44.79247239755776 L 58.077733196702084 44.7631723606763 L 57.93704148390661 44.731071448455666 L 57.797797043766536 44.69594388979334 L 57.66016555522421 44.65747637828801 L 57.32278038067856 45.31963206625301 A 28.612161830040634 28.612161830040634 0 0 0 57.66016555522421 44.65747637828801 L 57.32278038067856 45.31963206625301 L 57.43479901043392 45.40836764348965 L 57.5450636307407 45.500371301004435 L 57.65373032816308 45.59532484483526 L 57.76090985026502 45.692996601185214 L 57.86668489889671 45.79320840288045 L 57.97111941399315 45.89581786662702 L 58.07426406706567 46.00070790629028 L 58.17615974756088 46.10778007796345 L 58.276839895878524 46.216950126864816 L 58.376332130986995 46.32814488091019 L 58.474659424769456 46.44130000961686 L 58.57184097319205 46.55635836180183 L 58.667892857822665 46.67326870352065 L 58.76282855824588 46.791984740659245 L 58.856659355855875 46.91246434889671 L 58.949394656853556 47.03466895791513 L 59.04104225404305 47.15856305244856 L 59.04103197323575 47.158581392150204 A 31 31 0 0 1 58.648232557554024 47.838929937294296 L 58.64822181531016 47.83894801058542 L 58.4951025834706 47.82152591049023 L 58.342902637102256 47.80231708850784 L 58.19164883692562 47.78129703823897 L 58.04136988271537 47.75843832851569 L 57.89209661450644 47.73371012720362 L 57.74386238438539 47.707077613583024 L 57.596703521465685 47.67850124363538 L 57.450659922140595 47.64793581757483 L 57.305775812300794 47.61532927592565 L 57.16210075134586 47.58062111391749 L 57.01969098585726 47.54374024392378 L 56.87861132603581 47.504602032691636 L 56.73893783569289 47.46310405433768 L 56.600761852410606 47.4191197436069 L 56.464196322562564 47.37248839500917 L 56.32938650776028 47.32299826144225 L 56.1965299287762 47.2703550709953 L 55.79177886901098 47.893617046994585 A 28.612161830040634 28.612161830040634 0 0 0 56.1965299287762 47.2703550709953 L 55.79177886901098 47.893617046994585 L 55.893908455466125 47.99357565668024 L 55.993952033710656 48.096601099846126 L 56.09209809557612 48.20239324111863 L 56.1884809984457 48.31073325210681 L 56.28320161466107 48.42145258635255 L 56.3763384169945 48.534416324095645 L 56.46795403820721 48.64951331722675 L 56.55809943393942 48.76664993523612 L 56.646816668423725 48.88574588037216 L 56.73414085789444 49.006731268363325 L 56.820101572758844 49.12954452235167 L 56.904723877750904 49.25413081075921 L 56.98802912174746 49.380440861287966 L 57.07003554954315 49.508430042428124 L 57.150758783922015 49.63805763984703 L 57.23021221125286 49.76928627773471 L 57.30840729400618 49.902081449951424 L 57.30839515249738 49.902098614549274 A 31 31 0 0 1 56.84663174520376 50.537661419883385 L 56.84661917263368 50.53767827129688 L 56.696159849317105 50.50434629328801 L 56.54680153882292 50.469333472738995 L 56.39857351634201 50.432618245209 L 56.25150719176652 50.394176329744255 L 56.105636459022094 50.35398028677352 L 55.96099812724536 50.31199897257092 L 55.817632460010614 50.26819685717063 L 55.675583859818644 50.222533158704636 L 55.534901751983085 50.17496072574883 L 55.39564174888259 50.125424565352205 L 55.25786721965433 50.07385985868241 L 55.12165146604593 50.02018921062703 L 54.987080841603444 49.96431870723573 L 54.854259413223744 49.90613202396829 L 54.723316306846314 49.84548114180696 L 54.59441812192357 49.78217065759527 L 54.46779205697909 49.71592855801754 L 54.000109649304704 50.29346823341611 A 28.612161830040634 28.612161830040634 0 0 0 54.46779205697909 49.71592855801754 L 54.000109649304704 50.2934682334161 L 54.09123123933844 50.403554708105375 L 54.17995767714203 50.51647316860756 L 54.266507794658395 50.631944826483526 L 54.35103808704234 50.749766096277945 L 54.43366649194857 50.86977989887869 L 54.5144851552225 50.991860256268424 L 54.59356798465758 51.11590317612503 L 54.670975443807016 51.241820867171285 L 54.7467577598717 51.36953786844465 L 54.820957161611055 51.49898834915297 L 54.89360949397691 51.63011416071196 L 54.9647454158566 51.7628633918949 L 55.034391309533135 51.897189271887925 L 55.10256998511743 52.03304932077762 L 55.169301235616864 52.170404680294325 L 55.23460228090434 52.30921957863322 L 55.29848812753147 52.44946089683723 L 55.29847425834609 52.44947669827236 A 31 31 0 0 1 54.77280603596108 53.03329040470118 L 54.77279177081249 53.03330584960945 L 54.626640819850806 52.98442918581311 L 54.48176054613578 52.93399597448631 L 54.338182318583605 52.881987829411166 L 54.195939913070546 52.82838388587529 L 54.05506990606396 52.77316039750422 L 53.91561216046201 52.71629023878319 L 53.777610433163645 52.65774228307276 L 53.64111314629409 52.59748061323744 L 53.50617438307584 52.53546350250565 L 53.37285519956578 52.471642072259996 L 53.24122539317126 52.40595848263098 L 53.11136595407742 52.338343424603764 L 52.983372579457466 52.26871252510193 L 52.857360925344366 52.19696097477606 L 52.733474882512624 52.12295506280809 L 52.6119005629571 52.04651787086523 L 52.49289235371798 51.967402624461734 L 51.96740262446174 52.49289235371798 A 28.612161830040634 28.612161830040634 0 0 0 52.49289235371798 51.967402624461734 L 51.96740262446174 52.49289235371798 L 52.04651787086523 52.6119005629571 L 52.12295506280809 52.73347488251262 L 52.19696097477606 52.85736092534436 L 52.26871252510193 52.983372579457466 L 52.33834342460377 53.111365954077414 L 52.40595848263098 53.24122539317126 L 52.471642072259996 53.37285519956578 L 52.53546350250565 53.50617438307583 L 52.597480613237444 53.64111314629408 L 52.657742283072764 53.77761043316364 L 52.71629023878319 53.915612160462004 L 52.77316039750423 54.05506990606396 L 52.8283838858753 54.195939913070546 L 52.881987829411166 54.338182318583605 L 52.93399597448631 54.481760546135774 L 52.98442918581311 54.626640819850806 L 53.03330584960945 54.77279177081249 L 53.033290404701184 54.772806035961075 A 31 31 0 0 1 52.44947669827236 55.29847425834609 L 52.44946089683724 55.29848812753147 L 52.309219578633225 55.23460228090433 L 52.170404680294325 55.16930123561686 L 52.03304932077763 55.10256998511742 L 51.897189271887925 55.034391309533135 L 51.76286339189491 54.96474541585659 L 51.63011416071197 54.89360949397691 L 51.49898834915297 54.82095716161105 L 51.36953786844465 54.7467577598717 L 51.241820867171285 54.67097544380701 L 51.11590317612504 54.59356798465758 L 50.991860256268424 54.5144851552225 L 50.8697798988787 54.43366649194857 L 50.74976609627795 54.35103808704234 L 50.63194482648353 54.26650779465839 L 50.51647316860756 54.17995767714203 L 50.40355470810538 54.09123123933844 L 50.29346823341611 54.000109649304704 L 49.71592855801754 54.46779205697909 A 28.612161830040634 28.612161830040634 0 0 0 50.29346823341611 54.000109649304704 L 49.71592855801754 54.46779205697909 L 49.78217065759527 54.59441812192357 L 49.84548114180696 54.723316306846314 L 49.9061320239683 54.854259413223744 L 49.96431870723573 54.987080841603444 L 50.02018921062703 55.12165146604593 L 50.07385985868241 55.25786721965433 L 50.125424565352205 55.39564174888259 L 50.17496072574883 55.534901751983085 L 50.222533158704636 55.675583859818644 L 50.26819685717063 55.81763246001061 L 50.311998972570926 55.96099812724536 L 50.35398028677352 56.105636459022094 L 50.394176329744255 56.25150719176652 L 50.432618245209 56.39857351634201 L 50.469333472738995 56.54680153882292 L 50.50434629328801 56.696159849317105 L 50.53767827129688 56.84661917263367 L 50.537661419883385 56.84663174520376 A 31 31 0 0 1 49.902098614549274 57.30839515249738 L 49.902081449951424 57.30840729400617 L 49.769286277734714 57.230212211252855 L 49.638057639847034 57.150758783922015 L 49.50843004242813 57.07003554954315 L 49.380440861287966 56.98802912174746 L 49.25413081075921 56.904723877750904 L 49.12954452235168 56.82010157275884 L 49.00673126836333 56.73414085789443 L 48.88574588037216 56.646816668423725 L 48.766649935236124 56.55809943393942 L 48.649513317226756 56.46795403820721 L 48.534416324095645 56.3763384169945 L 48.42145258635255 56.28320161466107 L 48.31073325210681 56.1884809984457 L 48.20239324111863 56.09209809557612 L 48.096601099846126 55.993952033710656 L 47.99357565668025 55.89390845546612 L 47.893617046994585 55.79177886901098 L 47.27035507099531 56.196529928776194 A 28.612161830040634 28.612161830040634 0 0 0 47.893617046994585 55.79177886901098 L 47.27035507099531 56.196529928776194 L 47.32299826144225 56.32938650776028 L 47.37248839500917 56.464196322562564 L 47.4191197436069 56.600761852410606 L 47.463104054337684 56.73893783569288 L 47.504602032691636 56.8786113260358 L 47.543740243923786 57.01969098585725 L 47.58062111391749 57.16210075134586 L 47.61532927592566 57.305775812300794 L 47.64793581757485 57.45065992214059 L 47.67850124363538 57.596703521465685 L 47.70707761358303 57.74386238438538 L 47.73371012720363 57.89209661450644 L 47.758438328515695 58.04136988271537 L 47.781297038238975 58.191648836925616 L 47.80231708850785 58.342902637102256 L 47.82152591049024 58.4951025834706 L 47.83894801058542 58.64822181531016 L 47.838929937294296 58.648232557554024 A 31 31 0 0 1 47.15858139215021 59.04103197323574 L 47.158563052448564 59.04104225404304 L 47.03466895791513 58.949394656853556 L 46.91246434889672 58.85665935585587 L 46.79198474065925 58.76282855824588 L 46.673268703520655 58.66789285782266 L 46.556358361801834 58.57184097319205 L 46.44130000961686 58.474659424769456 L 46.3281448809102 58.376332130986995 L 46.216950126864816 58.276839895878524 L 46.107780077963454 58.176159747560874 L 46.00070790629029 58.07426406706567 L 45.89581786662702 57.97111941399315 L 45.79320840288045 57.86668489889671 L 45.692996601185214 57.76090985026502 L 45.59532484483527 57.65373032816308 L 45.50037130100444 57.5450636307407 L 45.408367643489655 57.43479901043392 L 45.31963206625301 57.32278038067855 L 44.65747637828801 57.66016555522421 A 28.612161830040634 28.612161830040634 0 0 0 45.31963206625301 57.32278038067855 L 44.657476378288024 57.66016555522421 L 44.69594388979334 57.797797043766536 L 44.731071448455666 57.93704148390661 L 44.76317236067631 58.07773319670208 L 44.792472397557766 58.21974984989892 L 44.81914319033952 58.362995914153515 L 44.843320158315976 58.50739378191219 L 44.86511311710411 58.652878512469286 L 44.88461301083772 58.799394497244904 L 44.90189641708662 58.946893228462585 L 44.917028689537545 59.095331742685005 L 44.930066225343424 59.24467149799254 L 44.941058146989576 59.394877541212715 L 44.95004757929468 59.545917875722196 L 44.957072638469285 59.69776297189699 L 44.96216721140756 59.85038538148273 L 44.96536157894998 60.003759429262914 L 44.96668292095703 60.15786096327918 L 44.96666382380304 60.15786975750257 A 31 31 0 0 1 44.24898357988165 60.477401588975596 L 44.24896426600982 60.47740989644273 L 44.13532865878589 60.37331389507038 L 44.02348697790611 60.26831274776969 L 43.913475358649904 60.16240241678254 L 43.8053331432587 60.0555775791322 L 43.69910340451874 59.9478314184157 L 43.59483359194038 59.83915536794363 L 43.49257633978473 59.72953878965011 L 43.39239049267947 59.61896856665182 L 43.29434242991383 59.50742857727448 L 43.19850780969602 59.394899002414824 L 43.1049739207248 59.28135539188595 L 43.01384294173197 59.166767370428225 L 42.92523661405729 59.05109678294789 L 42.839303224547265 58.93429492288648 L 42.75622860905463 58.816298164984104 L 42.676254748515674 58.69702058486952 L 42.59971440928136 58.57634021136295 L 41.90591972563299 58.84266303811433 A 28.612161830040634 28.612161830040634 0 0 0 42.59971440928136 58.57634021136295 L 41.905919725632984 58.84266303811434 L 41.929790100090784 58.98356151682519 L 41.9501702189649 59.1257149910781 L 41.967388990496616 59.26899143897397 L 41.98168373619324 59.41329279791406 L 41.99323513261585 59.55854200222419 L 42.00218596941611 59.70467602466374 L 42.008652248781736 59.85164175913671 L 42.01273022932442 59.99939340794336 L 42.01450113955738 60.147890733573604 L 42.01403446605511 60.29709783926879 L 42.011390325748636 60.446982289353656 L 42.00662122562659 60.59751445683078 L 41.99977339882324 60.74866702812871 L 41.990887839430755 60.90041461961873 L 41.98000111783122 61.052733475555854 L 41.96714603277441 61.20560122658483 L 41.952352139793774 61.35899669412329 L 41.95233222800934 61.35900344397484 A 31 31 0 0 1 41.2051833402473 61.60176683362724 L 41.20516326381211 61.60177307673586 L 41.1030311593902 61.48636916875516 L 41.00277776750915 61.3702525896942 L 40.90443944755619 61.25342310107934 L 40.808055882654415 61.13587952147772 L 40.71367062214095 61.01761957415948 L 40.62133175105567 60.89863969918884 L 40.53109272730437 60.778934818554774 L 40.44301344424533 60.65849803816815 L 40.35716160270898 60.53732026319597 L 40.273614518100295 60.41538969154235 L 40.19246155668192 60.29269113111461 L 40.11380751251906 60.169205053637775 L 40.037777448333 60.044906238470844 L 39.964523929861095 59.91976174607117 L 39.89423842557847 59.7937277248608 L 39.82717057236701 59.66674401506658 L 39.76366406310878 59.538724097234926 L 39.04583174351695 59.73106668757052 A 28.612161830040634 28.612161830040634 0 0 0 39.76366406310878 59.538724097234926 L 39.04583174351695 59.73106668757052 L 39.05484345210948 59.87368844323224 L 39.06025284234818 60.01719348838655 L 39.06240082072681 60.161484904637156 L 39.061533659013385 60.306489973434935 L 39.05783909956036 60.45215093712284 L 39.05146573794336 60.5984200393129 L 39.04253449197658 60.745256590360285 L 39.03114588012015 60.89262510521462 L 39.017384891874066 61.040494057482775 L 39.001324385391136 61.18883501037712 L 38.98302753872684 61.337621989838865 L 38.96254966809553 61.48683101964518 L 38.93993960840717 61.6364397685297 L 38.915240782495744 61.78642727696736 L 38.88849204355843 61.93677374199545 L 38.85972834890436 62.08746034520331 L 38.82898130592337 62.23846911342155 L 38.82896079766617 62.23847374494848 A 31 31 0 0 1 38.06052918562875 62.4018089262817 L 38.06050856659182 62.40181303663101 L 37.9709989456805 62.27636561140763 L 37.883432239939 62.15040579812555 L 37.79784463450131 62.023937160208376 L 37.71427571859557 61.89696267071116 L 37.632769040974196 61.76948461752149 L 37.55337279537675 61.64150448646059 L 37.47614067765774 61.513022815208075 L 37.401132973701905 61.38403900800203 L 37.32841796413635 61.2545510964957 L 37.25807377447913 61.12455542490677 L 37.19019086944124 60.99404622568453 L 37.12487551027562 60.86301503149454 L 37.06225471087172 60.731449832471185 L 37.00248364431559 60.59933381698015 L 36.945757313936085 60.46664338757246 L 36.89233027748676 60.33334480819617 L 36.842553388809634 60.19938795904909 L 36.108548154383854 60.31564296729889 A 28.612161830040634 28.612161830040634 0 0 0 36.842553388809634 60.19938795904909 L 36.10854815438386 60.31564296729889 L 36.10260246294595 60.45842540611093 L 36.0929818581378 60.60170975086157 L 36.080035509662736 60.74543524851555 L 36.06401594134446 60.88955532129302 L 36.0451159043823 61.034032152359 L 36.02348817223163 61.1788337794072 L 35.99925725353224 61.323932375048216 L 35.97252682529141 61.46930315566266 L 35.943384706833186 61.614923651384096 L 35.91190632963951 61.760773196955356 L 35.87815724069829 61.9068325645113 L 35.84219495939362 62.05308369129225 L 35.80407038736568 62.19950947300295 L 35.76382890044054 62.346093603858904 L 35.72151120894678 62.4928204506451 L 35.677154045753284 62.63967495207389 L 35.63079072380906 62.78664253730669 L 35.630769843771844 62.78664499976503 A 31 31 0 0 1 34.84947460500519 62.86876243835231 L 34.84945366927301 62.868764370908444 L 34.773547218010066 62.73464785668469 L 34.69962659756073 62.60022485125459 L 34.62772742235384 62.4655026808974 L 34.55788875397474 62.33048844058264 L 34.49015366346182 62.195188957748776 L 34.42456992523371 62.05961074769509 L 34.36119088479058 61.92375995790087 L 34.30007656003887 61.78764229745877 L 34.24129506330549 61.651262946073835 L 34.18492447426209 61.514626434330864 L 34.1310553649177 61.377736482411606 L 34.07979429949245 61.24059577669206 L 34.03126885145322 61.10320564966456 L 33.985635101125965 60.96556560179493 L 33.943089450195956 60.82767254830179 L 33.903888588300426 60.68951954647358 L 33.86838668621324 60.5510934252826 L 33.12625045190237 60.589987137248315 A 28.612161830040634 28.612161830040634 0 0 0 33.86838668621324 60.5510934252826 L 33.126250451902365 60.589987137248315 L 33.10541250267363 60.7313659049319 L 33.080867308178135 60.872859696013606 L 33.052968475752465 61.01444458844216 L 33.02197201457214 61.1561006555229 L 32.988073572860905 61.29781043557209 L 32.9514284281359 61.439558110550806 L 32.912163315719816 61.581329020207775 L 32.87038393526009 61.7231093538891 L 32.826179973737936 61.86488594443965 L 32.77962860952131 62.00664612454557 L 32.73079704038407 62.14837762319989 L 32.67974435868561 62.29006848900545 L 32.62652297510729 62.43170703203634 L 32.57117972132026 62.57328177889822 L 32.51375671875361 62.71478143740456 L 32.454292073382966 62.85619486840537 L 32.39282043873289 62.997511063033976 L 32.392799415681715 62.9975113294445 A 31 31 0 0 1 31.607200584318292 62.9975113294445 L 31.607179561267117 62.997511063033976 L 31.545707926617037 62.85619486840537 L 31.486243281246395 62.71478143740456 L 31.42882027867974 62.57328177889822 L 31.373477024892715 62.43170703203634 L 31.320255641314397 62.29006848900545 L 31.26920295961593 62.14837762319989 L 31.220371390478693 62.00664612454557 L 31.173820026262064 61.86488594443965 L 31.129616064739917 61.7231093538891 L 31.08783668428019 61.581329020207775 L 31.04857157186411 61.439558110550806 L 31.011926427139098 61.29781043557209 L 30.97802798542786 61.1561006555229 L 30.947031524247535 61.01444458844216 L 30.91913269182187 60.872859696013606 L 30.894587497326373 60.7313659049319 L 30.87374954809764 60.589987137248315 L 30.13161331378677 60.5510934252826 A 28.612161830040634 28.612161830040634 0 0 0 30.87374954809764 60.589987137248315 L 30.13161331378677 60.5510934252826 L 30.09611141169958 60.68951954647358 L 30.05691054980405 60.82767254830179 L 30.014364898874046 60.96556560179493 L 29.96873114854679 61.10320564966457 L 29.92020570050756 61.24059577669206 L 29.86894463508231 61.377736482411606 L 29.81507552573792 61.514626434330864 L 29.758704936694514 61.651262946073835 L 29.699923439961147 61.78764229745877 L 29.638809115209426 61.92375995790087 L 29.5754300747663 62.05961074769509 L 29.50984633653819 62.19518895774878 L 29.44211124602527 62.33048844058264 L 29.37227257764617 62.4655026808974 L 29.30037340243928 62.600224851254595 L 29.226452781989945 62.73464785668469 L 29.150546330727003 62.868764370908444 L 29.15052539499482 62.86876243835231 A 31 31 0 0 1 28.369230156228166 62.78664499976503 L 28.369209276190947 62.7866425373067 L 28.322845954246727 62.63967495207389 L 28.278488791053235 62.4928204506451 L 28.236171099559474 62.346093603858904 L 28.19592961263433 62.199509473002955 L 28.15780504060639 62.05308369129225 L 28.12184275930172 61.906832564511305 L 28.088093670360504 61.760773196955356 L 28.05661529316682 61.614923651384096 L 28.027473174708604 61.46930315566266 L 28.00074274646777 61.32393237504822 L 27.976511827768377 61.1788337794072 L 27.954884095617707 61.034032152359 L 27.935984058655553 60.88955532129302 L 27.919964490337275 60.74543524851555 L 27.907018141862213 60.60170975086158 L 27.897397537054054 60.45842540611093 L 27.891451845616146 60.31564296729889 L 27.157446611190373 60.19938795904909 A 28.612161830040634 28.612161830040634 0 0 0 27.891451845616146 60.31564296729889 L 27.15744661119038 60.19938795904909 L 27.107669722513254 60.33334480819617 L 27.054242686063926 60.46664338757246 L 26.997516355684418 60.59933381698015 L 26.937745289128294 60.731449832471185 L 26.875124489724392 60.86301503149454 L 26.80980913055877 60.99404622568453 L 26.741926225520885 61.124555424906774 L 26.671582035863665 61.2545510964957 L 26.5988670262981 61.384039008002034 L 26.523859322342272 61.513022815208075 L 26.44662720462326 61.64150448646059 L 26.367230959025814 61.7694846175215 L 26.285724281404434 61.89696267071116 L 26.2021553654987 62.02393716020838 L 26.11656776006101 62.15040579812555 L 26.02900105431951 62.27636561140763 L 25.939491433408186 62.40181303663101 L 25.939470814371255 62.4018089262817 A 31 31 0 0 1 25.171039202333844 62.23847374494848 L 25.171018694076636 62.23846911342155 L 25.140271651095645 62.08746034520331 L 25.11150795644158 61.93677374199545 L 25.08475921750427 61.78642727696736 L 25.060060391592835 61.636439768529705 L 25.037450331904484 61.48683101964518 L 25.016972461273173 61.337621989838865 L 24.99867561460887 61.18883501037712 L 24.98261510812594 61.040494057482775 L 24.968854119879865 60.89262510521463 L 24.957465508023432 60.745256590360285 L 24.948534262056647 60.5984200393129 L 24.94216090043965 60.45215093712284 L 24.938466340986626 60.306489973434935 L 24.9375991792732 60.161484904637156 L 24.939747157651833 60.01719348838655 L 24.94515654789053 59.87368844323224 L 24.954168256483058 59.73106668757052 L 24.23633593689123 59.538724097234926 A 28.612161830040634 28.612161830040634 0 0 0 24.954168256483058 59.73106668757052 L 24.236335936891223 59.538724097234926 L 24.172829427632994 59.666744015066584 L 24.105761574421535 59.7937277248608 L 24.035476070138905 59.91976174607117 L 23.962222551667 60.044906238470844 L 23.88619248748094 60.16920505363778 L 23.807538443318084 60.29269113111461 L 23.726385481899708 60.41538969154236 L 23.64283839729103 60.53732026319598 L 23.55698655575467 60.65849803816815 L 23.468907272695635 60.778934818554774 L 23.378668248944333 60.89863969918884 L 23.286329377859047 61.01761957415948 L 23.191944117345592 61.13587952147772 L 23.095560552443814 61.25342310107934 L 22.997222232490852 61.3702525896942 L 22.896968840609805 61.48636916875516 L 22.794836736187897 61.60177307673586 L 22.7948166597527 61.60176683362724 A 31 31 0 0 1 22.04766777199066 61.35900344397484 L 22.04764786020623 61.35899669412329 L 22.032853967225595 61.20560122658483 L 22.01999888216878 61.052733475555854 L 22.009112160569245 60.90041461961873 L 22.000226601176767 60.74866702812871 L 21.993378774373415 60.59751445683078 L 21.988609674251368 60.446982289353656 L 21.9859655339449 60.29709783926879 L 21.985498860442625 60.147890733573604 L 21.98726977067558 59.99939340794336 L 21.99134775121827 59.85164175913671 L 21.99781403058389 59.70467602466374 L 22.006764867384152 59.55854200222419 L 22.01831626380676 59.41329279791406 L 22.032611009503388 59.26899143897398 L 22.049829781035104 59.125714991078105 L 22.070209899909216 58.98356151682519 L 22.094080274367016 58.84266303811434 L 21.400285590718646 58.576340211362954 A 28.612161830040634 28.612161830040634 0 0 0 22.094080274367016 58.84266303811434 L 21.400285590718646 58.576340211362954 L 21.323745251484336 58.69702058486952 L 21.243771390945376 58.81629816498411 L 21.16069677545274 58.93429492288648 L 21.074763385942717 59.051096782947894 L 20.98615705826804 59.16676737042823 L 20.89502607927521 59.28135539188595 L 20.801492190303993 59.39489900241483 L 20.705657570086174 59.50742857727449 L 20.607609507320547 59.61896856665183 L 20.507423660215277 59.729538789650114 L 20.405166408059632 59.83915536794364 L 20.30089659548127 59.94783141841571 L 20.19466685674131 60.055577579132205 L 20.086524641350103 60.16240241678254 L 19.976513022093897 60.2683127477697 L 19.86467134121412 60.37331389507038 L 19.751035733990186 60.47740989644274 L 19.75101642011836 60.477401588975596 A 31 31 0 0 1 19.03333617619697 60.15786975750257 L 19.033317079042984 60.157860963279184 L 19.034638421050033 60.00375942926292 L 19.037832788592446 59.85038538148273 L 19.04292736153073 59.69776297189699 L 19.04995242070532 59.545917875722196 L 19.058941853010424 59.394877541212715 L 19.06993377465659 59.244671497992556 L 19.08297131046246 59.09533174268501 L 19.0981035829134 58.946893228462585 L 19.11538698916229 58.799394497244904 L 19.1348868828959 58.65287851246929 L 19.15667984168404 58.5073937819122 L 19.180856809660494 58.362995914153515 L 19.20752760244225 58.21974984989892 L 19.236827639323696 58.07773319670208 L 19.26892855154434 57.93704148390661 L 19.30405611020667 57.79779704376654 L 19.34252362171199 57.66016555522421 L 18.680367933746993 57.32278038067856 A 28.612161830040634 28.612161830040634 0 0 0 19.34252362171199 57.66016555522421 L 18.680367933746993 57.32278038067856 L 18.59163235651036 57.43479901043392 L 18.499628698995572 57.5450636307407 L 18.40467515516474 57.65373032816308 L 18.307003398814793 57.76090985026503 L 18.206791597119555 57.86668489889671 L 18.10418213337298 57.97111941399315 L 17.99929209370972 58.07426406706567 L 17.892219922036563 58.17615974756089 L 17.78304987313519 58.27683989587853 L 17.671855119089816 58.376332130986995 L 17.558699990383147 58.474659424769456 L 17.443641638198176 58.57184097319205 L 17.326731296479352 58.667892857822665 L 17.208015259340762 58.762828558245886 L 17.087535651103295 58.85665935585588 L 16.965331042084877 58.94939465685356 L 16.841436947551454 59.04104225404305 L 16.84141860784981 59.04103197323575 A 31 31 0 0 1 16.161070062705704 58.648232557554024 L 16.161051989414588 58.648221815310166 L 16.17847408950977 58.4951025834706 L 16.19768291149216 58.342902637102256 L 16.218702961761036 58.19164883692562 L 16.24156167148432 58.04136988271537 L 16.266289872796385 57.89209661450645 L 16.292922386416976 57.74386238438539 L 16.321498756364623 57.596703521465685 L 16.352064182425167 57.450659922140595 L 16.384670724074343 57.305775812300794 L 16.419378886082523 57.16210075134587 L 16.45625975607623 57.01969098585727 L 16.49539796730837 56.87861132603581 L 16.536895945662323 56.738937835692894 L 16.580880256393108 56.60076185241061 L 16.62751160499083 56.464196322562564 L 16.677001738557756 56.32938650776029 L 16.729644929004706 56.1965299287762 L 16.106382953005422 55.79177886901098 A 28.612161830040634 28.612161830040634 0 0 0 16.729644929004706 56.1965299287762 L 16.10638295300541 55.79177886901098 L 16.006424343319757 55.893908455466125 L 15.903398900153881 55.99395203371066 L 15.797606758881376 56.09209809557612 L 15.689266747893196 56.188480998445705 L 15.578547413647449 56.28320161466107 L 15.465583675904352 56.3763384169945 L 15.350486682773244 56.46795403820721 L 15.233350064763883 56.55809943393942 L 15.114254119627844 56.646816668423725 L 14.993268731636675 56.734140857894445 L 14.870455477648331 56.820101572758844 L 14.745869189240796 56.904723877750904 L 14.619559138712038 56.98802912174746 L 14.49156995757188 57.07003554954316 L 14.361942360152977 57.150758783922015 L 14.230713722265293 57.23021221125286 L 14.097918550048583 57.30840729400619 L 14.09790138545073 57.30839515249738 A 31 31 0 0 1 13.462338580116615 56.84663174520375 L 13.462321728703117 56.84661917263368 L 13.495653706711995 56.696159849317105 L 13.530666527261008 56.54680153882292 L 13.567381754791004 56.39857351634201 L 13.605823670255745 56.25150719176653 L 13.646019713226487 56.105636459022094 L 13.688001027429074 55.96099812724536 L 13.73180314282937 55.81763246001061 L 13.777466841295368 55.675583859818644 L 13.825039274251168 55.534901751983085 L 13.874575434647799 55.395641748882596 L 13.926140141317596 55.25786721965434 L 13.979810789372976 55.12165146604593 L 14.035681292764266 54.987080841603444 L 14.093867976031714 54.85425941322375 L 14.154518858193043 54.723316306846314 L 14.21782934240473 54.59441812192357 L 14.28407144198247 54.4677920569791 L 13.7065317665839 54.00010964930471 A 28.612161830040634 28.612161830040634 0 0 0 14.28407144198247 54.4677920569791 L 13.7065317665839 54.00010964930471 L 13.596445291894629 54.091231239338455 L 13.483526831392446 54.179957677142035 L 13.368055173516478 54.266507794658395 L 13.250233903722062 54.351038087042355 L 13.13022010112131 54.43366649194858 L 13.008139743731583 54.51448515522251 L 12.88409682387497 54.59356798465759 L 12.75817913282873 54.67097544380702 L 12.630462131555358 54.74675775987171 L 12.501011650847047 54.82095716161106 L 12.369885839288049 54.893609493976925 L 12.237136608105104 54.9647454158566 L 12.102810728112086 55.03439130953314 L 11.966950679222382 55.10256998511743 L 11.829595319705685 55.16930123561687 L 11.690780421366789 55.23460228090434 L 11.55053910316278 55.298488127531485 L 11.550523301727644 55.298474258346104 A 31 31 0 0 1 10.96670959529882 54.77280603596108 L 10.966694150390559 54.772791770812496 L 11.015570814186894 54.62664081985081 L 11.066004025513699 54.48176054613579 L 11.118012170588838 54.33818231858361 L 11.171616114124717 54.195939913070546 L 11.226839602495787 54.05506990606398 L 11.28370976121682 53.91561216046202 L 11.34225771692725 53.777610433163645 L 11.402519386762563 53.64111314629409 L 11.464536497494354 53.50617438307584 L 11.528357927740018 53.37285519956579 L 11.594041517369032 53.24122539317126 L 11.661656575396236 53.11136595407743 L 11.731287474898071 52.98337257945747 L 11.80303902522395 52.85736092534437 L 11.877044937191922 52.733474882512624 L 11.953482129134773 52.6119005629571 L 12.032597375538273 52.49289235371799 L 11.50710764628203 51.96740262446175 A 28.612161830040634 28.612161830040634 0 0 0 12.032597375538273 52.49289235371799 L 11.507107646282023 51.96740262446174 L 11.388099437042907 52.046517870865245 L 11.266525117487383 52.122955062808096 L 11.14263907465564 52.19696097477606 L 11.016627420542541 52.26871252510195 L 10.888634045922583 52.33834342460378 L 10.758774606828744 52.40595848263098 L 10.627144800434223 52.471642072259996 L 10.493825616924177 52.535463502505664 L 10.358886853705926 52.59748061323745 L 10.22238956683637 52.657742283072764 L 10.084387839537996 52.716290238783195 L 9.94493009393604 52.77316039750423 L 9.804060086929464 52.8283838858753 L 9.661817681416402 52.88198782941117 L 9.51823945386423 52.933995974486315 L 9.373359180149201 52.98442918581312 L 9.227208229187518 53.033305849609455 L 9.227193964038936 53.03329040470119 A 31 31 0 0 1 8.70152574165391 52.44947669827236 L 8.70151187246853 52.44946089683724 L 8.76539771909567 52.309219578633225 L 8.830698764383143 52.170404680294325 L 8.89743001488258 52.03304932077763 L 8.965608690466873 51.89718927188793 L 9.035254584143416 51.76286339189491 L 9.106390506023093 51.63011416071197 L 9.179042838388948 51.49898834915297 L 9.253242240128301 51.36953786844465 L 9.329024556192987 51.241820867171285 L 9.406432015342425 51.115903176125045 L 9.485514844777498 50.99186025626843 L 9.566333508051432 50.869779898878704 L 9.64896191295766 50.74976609627795 L 9.73349220534162 50.63194482648353 L 9.820042322857976 50.51647316860756 L 9.908768760661562 50.40355470810538 L 9.9998903506953 50.293468233416114 L 9.53220794302091 49.71592855801754 A 28.612161830040634 28.612161830040634 0 0 0 9.9998903506953 50.293468233416114 L 9.532207943020904 49.71592855801753 L 9.405581878076433 49.78217065759527 L 9.27668369315369 49.84548114180696 L 9.145740586776252 49.90613202396829 L 9.012919158396564 49.96431870723573 L 8.878348533954071 50.02018921062703 L 8.742132780345667 50.07385985868241 L 8.604358251117407 50.125424565352205 L 8.465098248016922 50.17496072574883 L 8.32441614018136 50.222533158704636 L 8.182367539989396 50.268196857170636 L 8.039001872754646 50.31199897257093 L 7.89436354097791 50.35398028677352 L 7.748492808233475 50.39417632974426 L 7.601426483657992 50.432618245209 L 7.4531984611770845 50.469333472738995 L 7.303840150682898 50.50434629328801 L 7.153380827366327 50.53767827129689 L 7.1533682547962485 50.53766141988339 A 31 31 0 0 1 6.691604847502617 49.902098614549274 L 6.69159270599382 49.902081449951424 L 6.769787788747141 49.769286277734714 L 6.8492412160779885 49.63805763984703 L 6.929964450456847 49.508430042428124 L 7.011970878252541 49.380440861287966 L 7.0952761222491 49.25413081075921 L 7.1798984272411595 49.12954452235168 L 7.265859142105562 49.00673126836333 L 7.353183331576279 48.88574588037216 L 7.4419005660605855 48.76664993523612 L 7.532045961792797 48.64951331722676 L 7.6236615830055 48.53441632409566 L 7.716798385338937 48.42145258635256 L 7.811519001554299 48.31073325210681 L 7.9079019044238805 48.20239324111863 L 8.00604796628934 48.096601099846126 L 8.106091544533875 47.99357565668024 L 8.208221130989024 47.89361704699459 L 7.80347007122381 47.27035507099531 A 28.612161830040634 28.612161830040634 0 0 0 8.208221130989024 47.89361704699459 L 7.80347007122381 47.27035507099531 L 7.67061349223972 47.322998261442265 L 7.535803677437446 47.372488395009185 L 7.399238147589397 47.419119743606906 L 7.26106216430712 47.46310405433769 L 7.121388673964198 47.50460203269164 L 6.9803090141427475 47.543740243923786 L 6.837899248654139 47.58062111391749 L 6.694224187699213 47.615329275925674 L 6.549340077859416 47.64793581757485 L 6.403296478534326 47.67850124363539 L 6.25613761561462 47.707077613583046 L 6.107903385493561 47.733710127203636 L 5.958630117284635 47.7584383285157 L 5.808351163074388 47.78129703823898 L 5.657097362897748 47.80231708850786 L 5.50489741652941 47.821525910490244 L 5.351778184689849 47.83894801058543 L 5.351767442445983 47.83892993729431 A 31 31 0 0 1 4.958968026764261 47.15858139215021 L 4.958957745956958 47.158563052448564 L 5.050605343146447 47.03466895791514 L 5.143340644144132 46.91246434889673 L 5.237171441754125 46.79198474065926 L 5.332107142177346 46.67326870352066 L 5.428159026807954 46.55635836180184 L 5.525340575230551 46.44130000961687 L 5.623667869013012 46.3281448809102 L 5.7231601041214795 46.21695012686482 L 5.823840252439123 46.107780077963454 L 5.925735932934334 46.0007079062903 L 6.028880586006856 45.895817866627034 L 6.1333151011033 45.79320840288047 L 6.239090149734977 45.69299660118523 L 6.346269671836929 45.595324844835275 L 6.454936369259304 45.50037130100444 L 6.565200989566083 45.408367643489655 L 6.677219619321452 45.31963206625302 L 6.339834444775796 44.657476378288024 A 28.612161830040634 28.612161830040634 0 0 0 6.677219619321452 45.31963206625302 L 6.339834444775789 44.65747637828802 L 6.202202956233467 44.69594388979335 L 6.062958516093396 44.73107144845568 L 5.922266803297923 44.76317236067631 L 5.780250150101082 44.792472397557766 L 5.637004085846488 44.81914319033951 L 5.492606218087804 44.84332015831597 L 5.3471214875307105 44.86511311710411 L 5.200605502755103 44.884613010837725 L 5.053106771537422 44.90189641708662 L 4.904668257314995 44.91702868953756 L 4.755328502007455 44.930066225343424 L 4.605122458787285 44.941058146989576 L 4.454082124277807 44.95004757929468 L 4.302237028103011 44.957072638469285 L 4.149614618517273 44.962167211407575 L 3.9962405707370863 44.96536157894998 L 3.8421390367208232 44.966682920957034 L 3.84213024249744 44.966663823803046 A 31 31 0 0 1 3.522598411024404 44.248983579881646 L 3.522590103557267 44.248964266009814 L 3.6266861049296217 44.13532865878589 L 3.731687252230305 44.02348697790611 L 3.837597583217466 43.913475358649904 L 3.944422420867806 43.8053331432587 L 4.052168581584294 43.699103404518745 L 4.160844632056364 43.59483359194038 L 4.27046121034989 43.49257633978473 L 4.381031433348177 43.39239049267947 L 4.492571422725515 43.29434242991383 L 4.605100997585179 43.198507809696025 L 4.718644608114051 43.10497392072481 L 4.8332326295717785 43.01384294173198 L 4.948903217052113 42.92523661405729 L 5.065705077113524 42.83930322454727 L 5.183701835015892 42.75622860905463 L 5.302979415130476 42.67625474851567 L 5.423659788637053 42.59971440928137 L 5.157336961885669 41.90591972563299 A 28.612161830040634 28.612161830040634 0 0 0 5.423659788637053 42.59971440928137 L 5.157336961885665 41.905919725632984 L 5.0164384831748094 41.9297901000908 L 4.874285008921902 41.95017021896491 L 4.731008561026027 41.967388990496616 L 4.586707202085943 41.98168373619325 L 4.441457997775807 41.99323513261585 L 4.295323975336256 42.00218596941611 L 4.148358240863288 42.00865224878173 L 4.0006065920566485 42.01273022932443 L 3.852109266426396 42.01450113955738 L 3.7029021607312167 42.014034466055115 L 3.5530177106463405 42.011390325748636 L 3.4024855431692167 42.00662122562659 L 3.251332971871296 41.99977339882324 L 3.0995853803812743 41.99088783943076 L 2.9472665244441494 41.98000111783123 L 2.794398773415171 41.96714603277441 L 2.641003305876712 41.95235213979378 L 2.6409965560251614 41.952332228009354 A 31 31 0 0 1 2.3982331663727585 41.205183340247295 L 2.39822692326414 41.2051632638121 L 2.5136308312448357 41.1030311593902 L 2.629747410305793 41.002777767509144 L 2.746576898920658 40.90443944755619 L 2.8641204785222847 40.808055882654415 L 2.982380425840514 40.71367062214096 L 3.1013603008111588 40.62133175105567 L 3.2210651814452227 40.53109272730436 L 3.341501961831856 40.44301344424534 L 3.4626797368040236 40.35716160270897 L 3.584610308457652 40.2736145181003 L 3.707308868885388 40.19246155668193 L 3.830794946362225 40.11380751251907 L 3.9550937615291524 40.037777448333 L 4.080238253928833 39.9645239298611 L 4.206272275139202 39.894238425578465 L 4.33325598493342 39.827170572367 L 4.4612759027650775 39.76366406310879 L 4.2689333124294855 39.045831743516956 A 28.612161830040634 28.612161830040634 0 0 0 4.4612759027650775 39.76366406310879 L 4.2689333124294855 39.045831743516956 L 4.126311556767767 39.054843452109495 L 3.982806511613454 39.06025284234819 L 3.8385150953628475 39.062400820726815 L 3.693510026565068 39.06153365901339 L 3.5478490628771695 39.05783909956036 L 3.401579960687105 39.05146573794336 L 3.2547434096397154 39.04253449197658 L 3.10737489478538 39.031145880120164 L 2.959505942517225 39.01738489187408 L 2.811164989622881 39.00132438539115 L 2.6623780101611416 38.983027538726844 L 2.513168980354827 38.962549668095534 L 2.363560231470302 38.93993960840719 L 2.2135727230326445 38.91524078249575 L 2.0632262580045477 38.88849204355844 L 1.9125396547966886 38.859728348904376 L 1.761530886578452 38.828981305923385 L 1.7615262550515212 38.828960797666184 A 31 31 0 0 1 1.5981910737182936 38.06052918562876 L 1.5981869633689918 38.06050856659183 L 1.7236343885923766 37.970998945680506 L 1.849594201874453 37.883432239939005 L 1.97606283979162 37.79784463450132 L 2.103037329288842 37.71427571859559 L 2.230515382478508 37.6327690409742 L 2.3584955135394097 37.55337279537676 L 2.486977184791929 37.47614067765774 L 2.615960991997973 37.40113297370191 L 2.745448903504297 37.32841796413635 L 2.875444575093237 37.25807377447914 L 3.0059537743154685 37.19019086944125 L 3.1369849685054625 37.124875510275636 L 3.268550167528815 37.06225471087173 L 3.400666183019858 37.0024836443156 L 3.5333566124275357 36.945757313936085 L 3.66665519180383 36.89233027748676 L 3.8006120409509165 36.84255338880965 L 3.6843570327011115 36.10854815438387 A 28.612161830040634 28.612161830040634 0 0 0 3.8006120409509165 36.84255338880965 L 3.684357032701108 36.108548154383854 L 3.54157459388907 36.10260246294597 L 3.398290249138423 36.092981858137804 L 3.254564751484452 36.080035509662736 L 3.1104446787069833 36.06401594134446 L 2.965967847641 36.0451159043823 L 2.821166220592797 36.02348817223162 L 2.6760676249517807 35.999257253532235 L 2.530696844337342 35.97252682529142 L 2.385076348615904 35.94338470683319 L 2.2392268030446445 35.911906329639514 L 2.093167435488702 35.87815724069829 L 1.946916308707749 35.84219495939362 L 1.8004905269970486 35.804070387365684 L 1.6539063961411031 35.76382890044054 L 1.5071795493549054 35.72151120894679 L 1.360325047926107 35.677154045753284 L 1.2133574626933061 35.63079072380907 L 1.213355000234973 35.63076984377185 A 31 31 0 0 1 1.131237561647687 34.849474605005184 L 1.131235629091556 34.849453669273004 L 1.2653521433153117 34.773547218010066 L 1.3997751487454089 34.69962659756072 L 1.5344973191025986 34.62772742235384 L 1.6695115594173622 34.55788875397474 L 1.8048110422512238 34.490153663461825 L 1.9403892523049109 34.42456992523371 L 2.0762400420991263 34.361190884790574 L 2.212357702541233 34.30007656003887 L 2.3487370539261647 34.241295063305486 L 2.485373565669139 34.1849244742621 L 2.62226351758839 34.13105536491771 L 2.7594042233079428 34.07979429949246 L 2.896794350335437 34.03126885145322 L 3.034434398205075 33.985635101125965 L 3.1723274516982087 33.943089450195956 L 3.3104804535264165 33.90388858830042 L 3.4489065747174017 33.86838668621325 L 3.410012862751689 33.12625045190237 A 28.612161830040634 28.612161830040634 0 0 0 3.4489065747174017 33.86838668621325 L 3.410012862751689 33.12625045190236 L 3.2686340950681014 33.10541250267364 L 3.1271403039863905 33.08086730817814 L 2.98555541155784 33.05296847575247 L 2.8438993444771015 33.02197201457214 L 2.702189564427915 32.9880735728609 L 2.560441889449198 32.95142842813589 L 2.4186709797922283 32.91216331571981 L 2.276890646110896 32.870383935260094 L 2.135114055560347 32.82617997373794 L 1.9933538754544315 32.77962860952132 L 1.8516223768001119 32.730797040384076 L 1.7099315109945472 32.67974435868561 L 1.5682929679636572 32.62652297510729 L 1.4267182211017833 32.57117972132026 L 1.285218562595439 32.51375671875362 L 1.143805131594636 32.454292073382966 L 1.0024889369660244 32.3928204387329 L 1.0024886705555005 32.39279941568172 A 31 31 0 0 1 1.0024886705555005 31.607200584318285 L 1.0024889369660244 31.60717956126711 L 1.143805131594636 31.545707926617037 L 1.285218562595439 31.486243281246388 L 1.4267182211017833 31.428820278679744 L 1.5682929679636572 31.373477024892715 L 1.7099315109945472 31.320255641314397 L 1.8516223768001083 31.269202959615935 L 1.9933538754544315 31.22037139047869 L 2.135114055560347 31.173820026262067 L 2.276890646110896 31.129616064739913 L 2.4186709797922283 31.087836684280198 L 2.560441889449198 31.048571571864116 L 2.702189564427915 31.01192642713911 L 2.8438993444771015 30.97802798542786 L 2.98555541155784 30.94703152424754 L 3.1271403039863905 30.919132691821865 L 3.2686340950681014 30.894587497326366 L 3.410012862751689 30.87374954809765 L 3.448906574717398 30.131613313786772 A 28.612161830040634 28.612161830040634 0 0 0 3.410012862751689 30.87374954809765 L 3.448906574717398 30.131613313786772 L 3.310480453526413 30.096111411699596 L 3.1723274516982087 30.05691054980407 L 3.0344343982050717 30.014364898874053 L 2.8967943503354334 29.968731148546798 L 2.759404223307939 29.92020570050756 L 2.62226351758839 29.868944635082315 L 2.485373565669139 29.81507552573792 L 2.348737053926161 29.75870493669453 L 2.2123577025412295 29.699923439961154 L 2.0762400420991227 29.638809115209444 L 1.9403892523049073 29.575430074766306 L 1.8048110422512202 29.5098463365382 L 1.6695115594173586 29.44211124602528 L 1.534497319102595 29.37227257764618 L 1.3997751487454089 29.300373402439295 L 1.2653521433153117 29.226452781989956 L 1.1312356290915524 29.150546330727018 L 1.131237561647687 29.150525394994833 A 31 31 0 0 1 1.2133550002349693 28.36923015622817 L 1.2133574626933026 28.36920927619095 L 1.360325047926107 28.322845954246738 L 1.5071795493549018 28.278488791053235 L 1.6539063961410996 28.236171099559485 L 1.800490526997045 28.19592961263434 L 1.946916308707749 28.157805040606398 L 2.0931674354886987 28.121842759301728 L 2.2392268030446445 28.088093670360507 L 2.385076348615904 28.05661529316683 L 2.5306968443373385 28.027473174708604 L 2.676067624951777 28.000742746467786 L 2.8211662205927936 27.97651182776839 L 2.9659678476409965 27.95488409561772 L 3.1104446787069797 27.93598405865556 L 3.2545647514844482 27.919964490337286 L 3.3982902491384195 27.907018141862217 L 3.5415745938890666 27.897397537054054 L 3.6843570327011044 27.89145184561616 L 3.8006120409509094 27.157446611190387 A 28.612161830040634 28.612161830040634 0 0 0 3.6843570327011044 27.89145184561616 L 3.800612040950913 27.157446611190373 L 3.6666551918038266 27.107669722513265 L 3.533356612427532 27.054242686063937 L 3.4006661830198546 26.997516355684418 L 3.2685501675288116 26.937745289128294 L 3.136984968505459 26.875124489724385 L 3.0059537743154685 26.809809130558765 L 2.8754445750932334 26.741926225520878 L 2.7454489035042933 26.671582035863672 L 2.6159609919979694 26.598867026298105 L 2.4869771847919253 26.52385932234228 L 2.358495513539406 26.44662720462326 L 2.2305153824785044 26.367230959025818 L 2.1030373292888385 26.285724281404434 L 1.9760628397916165 26.202155365498704 L 1.8495942018744493 26.11656776006102 L 1.723634388592373 26.029001054319515 L 1.5981869633689882 25.939491433408193 L 1.59819107371829 25.939470814371266 A 31 31 0 0 1 1.7615262550515176 25.171039202333837 L 1.7615308865784485 25.171018694076636 L 1.912539654796685 25.14027165109565 L 2.063226258004544 25.111507956441578 L 2.213572723032641 25.08475921750427 L 2.363560231470295 25.060060391592835 L 2.5131689803548234 25.037450331904488 L 2.6623780101611345 25.016972461273173 L 2.8111649896228776 24.998675614608867 L 2.9595059425172217 24.98261510812594 L 3.1073748947853765 24.96885411987986 L 3.2547434096397083 24.95746550802344 L 3.401579960687098 24.948534262056654 L 3.5478490628771624 24.942160900439657 L 3.693510026565061 24.938466340986626 L 3.8385150953628404 24.937599179273203 L 3.982806511613447 24.93974715765183 L 4.12631155676776 24.945156547890527 L 4.268933312429482 24.954168256483065 L 4.46127590276507 24.23633593689123 A 28.612161830040634 28.612161830040634 0 0 0 4.268933312429482 24.954168256483065 L 4.461275902765074 24.23633593689122 L 4.33325598493342 24.172829427633 L 4.206272275139202 24.105761574421543 L 4.080238253928833 24.03547607013891 L 3.9550937615291524 23.962222551667004 L 3.830794946362225 23.886192487480937 L 3.707308868885388 23.80753844331808 L 3.5846103084576484 23.726385481899705 L 3.4626797368040236 23.642838397291037 L 3.3415019618318524 23.556986555754673 L 3.221065181445219 23.468907272695642 L 3.1013603008111588 23.378668248944336 L 2.982380425840514 23.286329377859047 L 2.864120478522281 23.191944117345596 L 2.746576898920658 23.095560552443814 L 2.6297474103057894 22.997222232490863 L 2.5136308312448357 22.89696884060981 L 2.3982269232641364 22.794836736187904 L 2.3982331663727585 22.794816659752712 A 31 31 0 0 1 2.6409965560251614 22.047667771990657 L 2.6410033058767084 22.047647860206226 L 2.7943987734151676 22.0328539672256 L 2.947266524444146 22.019998882168778 L 3.0995853803812707 22.009112160569245 L 3.2513329718712924 22.00022660117677 L 3.4024855431692167 21.99337877437342 L 3.5530177106463405 21.98860967425137 L 3.702902160731213 21.985965533944892 L 3.8521092664263925 21.985498860442625 L 4.000606592056645 21.987269770675578 L 4.148358240863288 21.991347751218278 L 4.295323975336252 21.997814030583896 L 4.441457997775803 22.00676486738416 L 4.58670720208594 22.01831626380676 L 4.731008561026023 22.03261100950339 L 4.874285008921898 22.0498297810351 L 5.0164384831748094 22.070209899909212 L 5.157336961885662 22.094080274367023 L 5.423659788637046 21.40028559071865 A 28.612161830040634 28.612161830040634 0 0 0 5.157336961885662 22.094080274367023 L 5.423659788637046 21.40028559071865 L 5.302979415130473 21.32374525148435 L 5.183701835015881 21.24377139094539 L 5.065705077113517 21.16069677545275 L 4.948903217052106 21.074763385942727 L 4.833232629571771 20.98615705826804 L 4.718644608114044 20.895026079275212 L 4.605100997585172 20.801492190303996 L 4.492571422725508 20.70565757008619 L 4.38103143334817 20.607609507320554 L 4.2704612103498825 20.507423660215288 L 4.160844632056357 20.40516640805964 L 4.0521685815842865 20.300896595481277 L 3.944422420867795 20.19466685674132 L 3.8375975832174554 20.086524641350113 L 3.7316872522303015 19.97651302209391 L 3.626686104929611 19.864671341214127 L 3.5225901035572598 19.7510357339902 L 3.5225984110243935 19.751016420118372 A 31 31 0 0 1 3.842130242497433 19.03333617619697 L 3.842139036720816 19.033317079042988 L 3.9962405707370756 19.034638421050037 L 4.1496146185172655 19.037832788592446 L 4.302237028103004 19.04292736153073 L 4.454082124277797 19.049952420705335 L 4.605122458787278 19.058941853010438 L 4.755328502007448 19.06993377465659 L 4.904668257314988 19.08297131046246 L 5.053106771537411 19.098103582913403 L 5.200605502755092 19.11538698916229 L 5.3471214875307 19.134886882895913 L 5.4926062180877935 19.15667984168405 L 5.637004085846478 19.180856809660504 L 5.780250150101079 19.207527602442255 L 5.922266803297916 19.236827639323714 L 6.0629585160933885 19.26892855154434 L 6.202202956233457 19.304056110206673 L 6.339834444775779 19.342523621712004 L 6.677219619321434 18.680367933747007 A 28.612161830040634 28.612161830040634 0 0 0 6.339834444775779 19.342523621712004 L 6.677219619321441 18.680367933746997 L 6.565200989566076 18.59163235651036 L 6.454936369259293 18.499628698995572 L 6.346269671836922 18.40467515516474 L 6.23909014973497 18.307003398814793 L 6.1333151011032925 18.206791597119555 L 6.028880586006846 18.10418213337298 L 5.925735932934323 17.99929209370972 L 5.823840252439112 17.892219922036567 L 5.723160104121469 17.78304987313519 L 5.623667869013001 17.67185511908982 L 5.5253405752305405 17.558699990383147 L 5.428159026807943 17.44364163819818 L 5.332107142177335 17.326731296479352 L 5.237171441754118 17.208015259340762 L 5.143340644144121 17.087535651103295 L 5.050605343146437 16.965331042084877 L 4.958957745956948 16.841436947551454 L 4.95896802676425 16.84141860784981 A 31 31 0 0 1 5.351767442445972 16.161070062705704 L 5.351778184689838 16.161051989414588 L 5.504897416529403 16.178474089509777 L 5.657097362897741 16.19768291149216 L 5.808351163074377 16.218702961761036 L 5.958630117284624 16.24156167148432 L 6.10790338549355 16.266289872796385 L 6.2561376156146125 16.292922386416976 L 6.403296478534315 16.321498756364626 L 6.549340077859405 16.352064182425167 L 6.694224187699206 16.384670724074347 L 6.837899248654132 16.419378886082526 L 6.980309014142737 16.45625975607623 L 7.121388673964187 16.49539796730837 L 7.261062164307109 16.536895945662323 L 7.3992381475893865 16.580880256393115 L 7.535803677437432 16.62751160499083 L 7.670613492239713 16.677001738557756 L 7.803470071223796 16.729644929004706 L 8.208221130989017 16.106382953005422 A 28.612161830040634 28.612161830040634 0 0 0 7.803470071223796 16.729644929004706 L 8.20822113098902 16.106382953005415 L 8.106091544533875 16.006424343319757 L 8.006047966289337 15.903398900153885 L 7.9079019044238805 15.797606758881376 L 7.8115190015542915 15.689266747893196 L 7.716798385338933 15.578547413647449 L 7.623661583005497 15.465583675904352 L 7.532045961792793 15.350486682773244 L 7.441900566060582 15.233350064763883 L 7.353183331576272 15.114254119627844 L 7.265859142105558 14.993268731636675 L 7.179898427241156 14.870455477648331 L 7.095276122249096 14.745869189240796 L 7.011970878252534 14.619559138712042 L 6.92996445045684 14.49156995757188 L 6.849241216077985 14.361942360152977 L 6.769787788747138 14.230713722265293 L 6.691592705993816 14.097918550048583 L 6.69160484750261 14.097901385450733 A 31 31 0 0 1 7.153368254796245 13.462338580116615 L 7.153380827366323 13.462321728703117 L 7.303840150682895 13.495653706711995 L 7.453198461177077 13.530666527261008 L 7.601426483657988 13.567381754791004 L 7.748492808233472 13.605823670255745 L 7.894363540977906 13.646019713226487 L 8.039001872754643 13.688001027429078 L 8.18236753998939 13.731803142829374 L 8.324416140181356 13.777466841295368 L 8.465098248016915 13.825039274251168 L 8.604358251117404 13.874575434647799 L 8.742132780345663 13.9261401413176 L 8.878348533954068 13.979810789372976 L 9.01291915839656 14.03568129276427 L 9.145740586776245 14.093867976031714 L 9.276683693153682 14.154518858193047 L 9.405581878076429 14.21782934240473 L 9.5322079430209 14.284071441982473 L 9.999890350695289 13.706531766583904 A 28.612161830040634 28.612161830040634 0 0 0 9.5322079430209 14.284071441982473 L 9.999890350695289 13.706531766583904 L 9.908768760661548 13.596445291894632 L 9.820042322857962 13.48352683139245 L 9.733492205341609 13.368055173516478 L 9.648961912957645 13.250233903722062 L 9.566333508051422 13.130220101121314 L 9.485514844777487 13.008139743731586 L 9.40643201534241 12.88409682387497 L 9.329024556192973 12.758179132828733 L 9.253242240128287 12.630462131555358 L 9.179042838388934 12.501011650847051 L 9.106390506023079 12.369885839288052 L 9.035254584143399 12.237136608105104 L 8.965608690466855 12.102810728112086 L 8.89743001488257 11.966950679222386 L 8.83069876438313 11.829595319705685 L 8.765397719095656 11.690780421366789 L 8.701511872468515 11.55053910316278 L 8.701525741653896 11.550523301727647 A 31 31 0 0 1 9.227193964038921 10.966709595298823 L 9.227208229187504 10.966694150390559 L 9.373359180149187 11.015570814186894 L 9.518239453864215 11.066004025513699 L 9.661817681416384 11.118012170588841 L 9.804060086929447 11.17161611412472 L 9.944930093936026 11.22683960249579 L 10.084387839537982 11.28370976121682 L 10.222389566836355 11.34225771692725 L 10.358886853705908 11.402519386762567 L 10.493825616924163 11.464536497494354 L 10.627144800434209 11.528357927740018 L 10.75877460682873 11.594041517369035 L 10.888634045922569 11.66165657539624 L 11.016627420542527 11.731287474898075 L 11.142639074655627 11.80303902522395 L 11.266525117487372 11.877044937191922 L 11.388099437042893 11.953482129134773 L 11.507107646282009 12.032597375538277 L 12.032597375538252 11.507107646282034 A 28.612161830040634 28.612161830040634 0 0 0 11.507107646282009 12.032597375538277 L 12.032597375538263 11.507107646282023 L 11.953482129134759 11.388099437042907 L 11.877044937191904 11.266525117487387 L 11.803039025223935 11.14263907465564 L 11.731287474898057 11.016627420542541 L 11.661656575396226 10.888634045922583 L 11.594041517369018 10.758774606828744 L 11.528357927740004 10.627144800434223 L 11.464536497494336 10.493825616924177 L 11.402519386762549 10.358886853705926 L 11.342257716927232 10.222389566836373 L 11.283709761216802 10.084387839537996 L 11.226839602495772 9.94493009393604 L 11.171616114124703 9.804060086929464 L 11.118012170588827 9.661817681416402 L 11.066004025513681 9.51823945386423 L 11.015570814186876 9.373359180149201 L 10.966694150390541 9.227208229187518 L 10.966709595298806 9.227193964038936 A 31 31 0 0 1 11.550523301727633 8.70152574165391 L 11.550539103162762 8.70151187246853 L 11.690780421366771 8.76539771909567 L 11.829595319705671 8.830698764383143 L 11.966950679222371 8.89743001488258 L 12.102810728112068 8.965608690466873 L 12.237136608105097 9.035254584143406 L 12.36988583928802 9.106390506023104 L 12.50101165084703 9.179042838388952 L 12.63046213155534 9.253242240128305 L 12.758179132828715 9.329024556192987 L 12.884096823874955 9.406432015342425 L 13.008139743731569 9.485514844777502 L 13.130220101121296 9.566333508051432 L 13.250233903722048 9.64896191295766 L 13.368055173516463 9.73349220534162 L 13.483526831392421 9.820042322857983 L 13.596445291894614 9.908768760661562 L 13.706531766583883 9.9998903506953 L 14.284071441982455 9.53220794302091 A 28.612161830040634 28.612161830040634 0 0 0 13.706531766583883 9.9998903506953 L 14.284071441982455 9.53220794302091 L 14.217829342404734 9.405581878076426 L 14.154518858193043 9.27668369315369 L 14.0938679760317 9.145740586776263 L 14.035681292764274 9.012919158396556 L 13.979810789372959 8.878348533954082 L 13.926140141317585 8.742132780345678 L 13.874575434647781 8.604358251117414 L 13.825039274251171 8.465098248016915 L 13.777466841295372 8.324416140181352 L 13.731803142829378 8.18236753998939 L 13.68800102742907 8.03900187275465 L 13.64601971322648 7.89436354097791 L 13.605823670255738 7.748492808233479 L 13.567381754790997 7.6014264836579954 L 13.530666527261012 7.453198461177077 L 13.495653706711998 7.303840150682891 L 13.46232172870311 7.15338082736633 L 13.462338580116619 7.153368254796241 A 31 31 0 0 1 14.097901385450712 6.691604847502624 L 14.097918550048576 6.691592705993823 L 14.230713722265275 6.769787788747152 L 14.361942360152959 6.849241216077999 L 14.491569957571873 6.929964450456847 L 14.619559138712034 7.011970878252541 L 14.74586918924079 7.0952761222491 L 14.870455477648324 7.179898427241163 L 14.993268731636661 7.2658591421055725 L 15.114254119627823 7.353183331576286 L 15.233350064763869 7.441900566060593 L 15.350486682773248 7.5320459617927895 L 15.465583675904355 7.623661583005497 L 15.578547413647453 7.7167983853389295 L 15.689266747893182 7.811519001554306 L 15.797606758881379 7.907901904423877 L 15.903398900153874 8.00604796628934 L 16.006424343319743 8.106091544533886 L 16.106382953005415 8.20822113098902 L 16.7296449290047 7.803470071223803 A 28.612161830040634 28.612161830040634 0 0 0 16.106382953005415 8.20822113098902 L 16.729644929004678 7.803470071223813 L 16.67700173855775 7.670613492239717 L 16.62751160499081 7.535803677437446 L 16.580880256393087 7.399238147589404 L 16.536895945662316 7.261062164307116 L 16.495397967308342 7.121388673964205 L 16.4562597560762 6.980309014142751 L 16.419378886082498 6.837899248654146 L 16.384670724074336 6.694224187699209 L 16.35206418242516 6.549340077859409 L 16.32149875636462 6.403296478534319 L 16.292922386416954 6.25613761561462 L 16.266289872796364 6.107903385493561 L 16.2415616714843 5.958630117284638 L 16.218702961761018 5.808351163074388 L 16.19768291149215 5.657097362897741 L 16.178474089509763 5.504897416529406 L 16.161051989414567 5.351778184689852 L 16.161070062705697 5.351767442445976 A 31 31 0 0 1 16.841418607849775 4.958968026764271 L 16.841436947551436 4.958957745956958 L 16.96533104208485 5.050605343146454 L 17.087535651103263 5.143340644144139 L 17.20801525934074 5.237171441754125 L 17.326731296479334 5.332107142177346 L 17.44364163819816 5.428159026807954 L 17.55869999038313 5.525340575230551 L 17.671855119089784 5.623667869013019 L 17.783049873135162 5.723160104121487 L 17.89221992203653 5.82384025243913 L 17.999292093709713 5.92573593293433 L 18.104182133372973 6.028880586006853 L 18.206791597119548 6.133315101103296 L 18.30700339881476 6.239090149734984 L 18.404675155164735 6.346269671836925 L 18.499628698995558 6.454936369259308 L 18.59163235651033 6.56520098956609 L 18.680367933746986 6.677219619321445 L 19.342523621711983 6.339834444775789 A 28.612161830040634 28.612161830040634 0 0 0 18.680367933746986 6.677219619321445 L 19.342523621711962 6.3398344447758 L 19.304056110206652 6.202202956233467 L 19.268928551544313 6.062958516093403 L 19.236827639323668 5.922266803297937 L 19.207527602442234 5.780250150101086 L 19.18085680966046 5.637004085846499 L 19.156679841684007 5.492606218087818 L 19.13488688289587 5.347121487530721 L 19.11538698916227 5.200605502755103 L 19.09810358291338 5.053106771537422 L 19.08297131046244 4.904668257314999 L 19.069933774656562 4.755328502007462 L 19.058941853010406 4.605122458787292 L 19.049952420705303 4.454082124277814 L 19.042927361530698 4.3022370281030184 L 19.037832788592425 4.149614618517273 L 19.034638421050012 3.9962405707370863 L 19.033317079042952 3.8421390367208303 L 19.033336176196947 3.84213024249744 A 31 31 0 0 1 19.751016420118326 3.522598411024415 L 19.751035733990168 3.522590103557274 L 19.864671341214084 3.6266861049296324 L 19.97651302209387 3.7316872522303193 L 20.08652464135008 3.8375975832174696 L 20.194666856741286 3.9444224208678094 L 20.30089659548124 4.052168581584301 L 20.405166408059607 4.160844632056371 L 20.507423660215245 4.2704612103499 L 20.607609507320507 4.381031433348188 L 20.705657570086142 4.492571422725526 L 20.801492190303975 4.605100997585183 L 20.89502607927519 4.7186446081140545 L 20.98615705826802 4.833232629571782 L 21.07476338594268 4.948903217052127 L 21.160696775452728 5.065705077113524 L 21.243771390945362 5.183701835015896 L 21.323745251484304 5.302979415130487 L 21.40028559071863 5.423659788637057 L 22.094080274367006 5.157336961885669 A 28.612161830040634 28.612161830040634 0 0 0 21.40028559071863 5.423659788637057 L 22.094080274367006 5.157336961885669 L 22.070209899909216 5.0164384831748094 L 22.04982978103509 4.874285008921902 L 22.03261100950337 4.73100856102603 L 22.018316263806767 4.586707202085936 L 22.006764867384142 4.44145799777581 L 21.997814030583875 4.2953239753362595 L 21.991347751218257 4.1483582408632955 L 21.98726977067558 4.000606592056645 L 21.985498860442632 3.8521092664263925 L 21.985965533944896 3.702902160731213 L 21.98860967425136 3.5530177106463405 L 21.993378774373408 3.4024855431692203 L 22.000226601176756 3.251332971871296 L 22.009112160569238 3.0995853803812743 L 22.01999888216878 2.9472665244441423 L 22.032853967225602 2.794398773415164 L 22.047647860206215 2.641003305876712 L 22.04766777199066 2.640996556025158 A 31 31 0 0 1 22.79481665975269 2.3982331663727656 L 22.794836736187893 2.39822692326414 L 22.896968840609787 2.5136308312448428 L 22.99722223249084 2.6297474103057965 L 23.095560552443807 2.7465768989206616 L 23.191944117345585 2.8641204785222847 L 23.28632937785904 2.982380425840514 L 23.378668248944326 3.1013603008111588 L 23.46890727269562 3.2210651814452262 L 23.556986555754648 3.3415019618318595 L 23.642838397291015 3.462679736804027 L 23.726385481899708 3.5846103084576484 L 23.807538443318084 3.707308868885388 L 23.88619248748094 3.8307949463622215 L 23.962222551666983 3.9550937615291595 L 24.035476070138913 4.0802382539288296 L 24.105761574421532 4.206272275139202 L 24.17282942763298 4.333255984933423 L 24.236335936891223 4.461275902765074 L 24.954168256483058 4.268933312429482 A 28.612161830040634 28.612161830040634 0 0 0 24.236335936891223 4.461275902765074 L 24.954168256483033 4.268933312429489 L 24.94515654789052 4.126311556767764 L 24.93974715765181 3.982806511613454 L 24.93759917927317 3.838515095362851 L 24.93846634098662 3.6935100265650647 L 24.942160900439625 3.547849062877173 L 24.948534262056622 3.401579960687105 L 24.957465508023404 3.254743409639719 L 24.96885411987985 3.1073748947853765 L 24.982615108125934 2.9595059425172217 L 24.998675614608857 2.811164989622881 L 25.016972461273152 2.6623780101611416 L 25.037450331904466 2.513168980354827 L 25.060060391592813 2.363560231470302 L 25.08475921750425 2.2135727230326445 L 25.111507956441567 2.0632262580045477 L 25.140271651095638 1.9125396547966886 L 25.17101869407661 1.7615308865784556 L 25.17103920233383 1.7615262550515212 A 31 31 0 0 1 25.939470814371226 1.5981910737182972 L 25.939491433408172 1.5981869633689918 L 26.02900105431948 1.7236343885923802 L 26.11656776006098 1.8495942018744564 L 26.202155365498683 1.97606283979162 L 26.285724281404413 2.103037329288842 L 26.367230959025793 2.230515382478508 L 26.44662720462324 2.3584955135394097 L 26.523859322342243 2.4869771847919324 L 26.59886702629807 2.6159609919979765 L 26.671582035863636 2.7454489035043004 L 26.74192622552087 2.8754445750932334 L 26.809809130558754 3.0059537743154685 L 26.875124489724378 3.136984968505459 L 26.93774528912826 3.2685501675288187 L 26.99751635568441 3.4006661830198546 L 27.054242686063915 3.5333566124275357 L 27.10766972251323 3.6666551918038337 L 27.157446611190366 3.8006120409509165 L 27.89145184561614 3.684357032701108 A 28.612161830040634 28.612161830040634 0 0 0 27.157446611190366 3.8006120409509165 L 27.891451845616114 3.684357032701115 L 27.897397537054033 3.54157459388907 L 27.90701814186218 3.3982902491384266 L 27.919964490337236 3.2545647514844553 L 27.93598405865554 3.1104446787069833 L 27.954884095617672 2.9659678476410036 L 27.976511827768345 2.8211662205928008 L 28.000742746467736 2.6760676249517843 L 28.027473174708582 2.530696844337342 L 28.056615293166807 2.385076348615904 L 28.088093670360482 2.2392268030446445 L 28.121842759301693 2.093167435488702 L 28.157805040606362 1.9469163087077526 L 28.195929612634302 1.8004905269970486 L 28.236171099559446 1.6539063961411031 L 28.278488791053213 1.5071795493549054 L 28.322845954246713 1.360325047926107 L 28.369209276190915 1.2133574626933097 L 28.369230156228145 1.213355000234973 A 31 31 0 0 1 29.150525394994784 1.1312375616476906 L 29.150546330726982 1.131235629091556 L 29.226452781989906 1.2653521433153152 L 29.300373402439245 1.3997751487454124 L 29.372272577646143 1.5344973191025986 L 29.442111246025245 1.6695115594173622 L 29.50984633653816 1.8048110422512238 L 29.57543007476627 1.9403892523049109 L 29.638809115209394 2.0762400420991263 L 29.699923439961104 2.212357702541233 L 29.758704936694482 2.3487370539261647 L 29.8150755257379 2.4853735656691427 L 29.86894463508229 2.62226351758839 L 29.920205700507537 2.7594042233079428 L 29.968731148546752 2.896794350335437 L 30.01436489887403 3.034434398205075 L 30.056910549804034 3.1723274516982123 L 30.09611141169955 3.3104804535264165 L 30.13161331378675 3.4489065747174017 L 30.873749548097628 3.410012862751689 A 28.612161830040634 28.612161830040634 0 0 0 30.13161331378675 3.4489065747174017 L 30.873749548097628 3.410012862751689 L 30.89458749732637 3.2686340950681014 L 30.919132691821854 3.1271403039863905 L 30.947031524247514 2.98555541155784 L 30.978027985427868 2.8438993444771015 L 31.011926427139088 2.702189564427915 L 31.048571571864095 2.560441889449198 L 31.087836684280177 2.4186709797922283 L 31.129616064739917 2.276890646110896 L 31.17382002626207 2.135114055560347 L 31.220371390478693 1.9933538754544315 L 31.269202959615924 1.8516223768001119 L 31.32025564131439 1.7099315109945472 L 31.373477024892704 1.5682929679636572 L 31.428820278679733 1.4267182211017833 L 31.48624328124639 1.285218562595439 L 31.545707926617045 1.143805131594636 L 31.607179561267102 1.0024889369660244 L 31.60720058431829 1.0024886705555005 A 31 31 0 0 1 32.3927994156817 1.0024886705555005 L 32.39282043873289 1.0024889369660244 L 32.454292073382945 1.143805131594636 L 32.5137567187536 1.285218562595439 L 32.571179721320256 1.4267182211017833 L 32.626522975107285 1.5682929679636572 L 32.6797443586856 1.7099315109945472 L 32.73079704038406 1.8516223768001083 L 32.779628609521296 1.9933538754544315 L 32.826179973737915 2.1351140555603436 L 32.87038393526007 2.2768906461108926 L 32.91216331571981 2.4186709797922283 L 32.9514284281359 2.560441889449198 L 32.988073572860905 2.702189564427915 L 33.02197201457212 2.843899344477098 L 33.05296847575247 2.98555541155784 L 33.080867308178135 3.1271403039863905 L 33.105412502673616 3.2686340950681014 L 33.126250451902365 3.410012862751689 L 33.86838668621324 3.448906574717398 A 28.612161830040634 28.612161830040634 0 0 0 33.126250451902365 3.410012862751689 L 33.86838668621321 3.448906574717398 L 33.90388858830041 3.3104804535264165 L 33.94308945019593 3.1723274516982087 L 33.98563510112593 3.0344343982050717 L 34.03126885145321 2.8967943503354334 L 34.07979429949243 2.759404223307939 L 34.13105536491767 2.6222635175883866 L 34.18492447426206 2.485373565669139 L 34.24129506330548 2.348737053926161 L 34.30007656003886 2.212357702541233 L 34.36119088479057 2.0762400420991227 L 34.42456992523369 1.9403892523049073 L 34.4901536634618 1.8048110422512202 L 34.557888753974716 1.6695115594173586 L 34.62772742235382 1.534497319102595 L 34.699626597560716 1.3997751487454089 L 34.77354721801006 1.2653521433153117 L 34.84945366927298 1.1312356290915524 L 34.84947460500518 1.131237561647687 A 31 31 0 0 1 35.630769843771816 1.2133550002349693 L 35.63079072380905 1.2133574626933026 L 35.67715404575325 1.3603250479261035 L 35.72151120894675 1.5071795493549018 L 35.763828900440515 1.6539063961410996 L 35.804070387365655 1.800490526997045 L 35.8421949593936 1.9469163087077455 L 35.87815724069827 2.0931674354886987 L 35.91190632963948 2.2392268030446445 L 35.94338470683316 2.3850763486159003 L 35.97252682529138 2.5306968443373385 L 35.99925725353223 2.676067624951777 L 36.023488172231616 2.821166220592797 L 36.04511590438229 2.965967847641 L 36.06401594134442 3.110444678706976 L 36.08003550966273 3.2545647514844482 L 36.09298185813778 3.3982902491384195 L 36.10260246294593 3.541574593889063 L 36.10854815438385 3.684357032701108 L 36.84255338880963 3.800612040950913 A 28.612161830040634 28.612161830040634 0 0 0 36.10854815438385 3.684357032701108 L 36.8425533888096 3.8006120409509094 L 36.892330277486735 3.6666551918038266 L 36.94575731393605 3.5333566124275286 L 37.002483644315554 3.400666183019851 L 37.062254710871706 3.2685501675288116 L 37.12487551027559 3.136984968505452 L 37.19019086944121 3.005953774315465 L 37.258073774479094 2.8754445750932263 L 37.32841796413633 2.7454489035042933 L 37.40113297370189 2.6159609919979694 L 37.47614067765772 2.4869771847919253 L 37.553372795376724 2.3584955135394026 L 37.63276904097417 2.230515382478501 L 37.71427571859555 2.1030373292888385 L 37.79784463450128 1.976062839791613 L 37.88343223993898 1.8495942018744493 L 37.970998945680485 1.7236343885923695 L 38.06050856659179 1.5981869633689847 L 38.06052918562873 1.59819107371829 A 31 31 0 0 1 38.828960797666134 1.7615262550515105 L 38.82898130592335 1.761530886578445 L 38.859728348904326 1.912539654796678 L 38.888492043558394 2.063226258004537 L 38.915240782495715 2.2135727230326374 L 38.93993960840715 2.3635602314702915 L 38.9625496680955 2.51316898035482 L 38.98302753872681 2.662378010161131 L 39.00132438539111 2.8111649896228705 L 39.01738489187403 2.9595059425172145 L 39.031145880120114 3.1073748947853694 L 39.04253449197656 3.2547434096397083 L 39.051465737943346 3.401579960687098 L 39.05783909956034 3.5478490628771624 L 39.06153365901335 3.693510026565054 L 39.06240082072679 3.8385150953628404 L 39.060252842348156 3.9828065116134432 L 39.054843452109445 4.126311556767753 L 39.04583174351693 4.268933312429482 L 39.76366406310876 4.46127590276507 A 28.612161830040634 28.612161830040634 0 0 0 39.04583174351693 4.268933312429482 L 39.76366406310876 4.46127590276507 L 39.82717057236701 4.33325598493342 L 39.89423842557846 4.206272275139202 L 39.96452392986108 4.080238253928826 L 40.037777448333 3.955093761529156 L 40.113807512519045 3.8307949463622215 L 40.192461556681906 3.7073088688853844 L 40.27361451810028 3.584610308457645 L 40.35716160270897 3.462679736804027 L 40.44301344424534 3.341501961831856 L 40.53109272730437 3.2210651814452227 L 40.62133175105566 3.1013603008111588 L 40.71367062214095 2.982380425840514 L 40.8080558826544 2.864120478522281 L 40.904439447556186 2.746576898920658 L 41.00277776750915 2.629747410305793 L 41.1030311593902 2.513630831244839 L 41.205163263812096 2.3982269232641364 L 41.2051833402473 2.398233166372762 A 31 31 0 0 1 41.952332228009325 2.6409965560251543 L 41.952352139793774 2.6410033058767084 L 41.96714603277439 2.7943987734151605 L 41.98000111783121 2.9472665244441387 L 41.990887839430755 3.0995853803812707 L 41.99977339882323 3.2513329718712924 L 42.00662122562658 3.4024855431692167 L 42.01139032574863 3.5530177106463405 L 42.014034466055094 3.702902160731206 L 42.01450113955736 3.8521092664263854 L 42.012730229324404 4.000606592056638 L 42.008652248781736 4.148358240863292 L 42.00218596941611 4.295323975336256 L 41.99323513261585 4.441457997775807 L 41.981683736193226 4.5867072020859325 L 41.967388990496616 4.731008561026027 L 41.9501702189649 4.874285008921898 L 41.92979010009077 5.016438483174806 L 41.905919725632984 5.157336961885665 L 42.59971440928136 5.42365978863705 A 28.612161830040634 28.612161830040634 0 0 0 41.905919725632984 5.157336961885665 L 42.59971440928133 5.423659788637039 L 42.67625474851566 5.302979415130476 L 42.7562286090546 5.183701835015881 L 42.83930322454724 5.06570507711351 L 42.92523661405728 4.948903217052109 L 43.013842941731944 4.833232629571768 L 43.104973920724774 4.718644608114037 L 43.19850780969599 4.605100997585165 L 43.294342429913826 4.492571422725511 L 43.39239049267946 4.3810314333481735 L 43.49257633978472 4.270461210349886 L 43.59483359194036 4.160844632056357 L 43.69910340451872 4.052168581584283 L 43.80533314325868 3.944422420867795 L 43.91347535864988 3.8375975832174554 L 44.023486977906096 3.7316872522303015 L 44.13532865878588 3.626686104929618 L 44.24896426600979 3.522590103557256 L 44.24898357988164 3.5225984110244006 A 31 31 0 0 1 44.96666382380302 3.8421302424974257 L 44.96668292095701 3.842139036720816 L 44.96536157894995 3.9962405707370685 L 44.96216721140754 4.149614618517258 L 44.95707263846927 4.302237028103001 L 44.95004757929466 4.454082124277797 L 44.94105814698956 4.605122458787278 L 44.93006622534341 4.755328502007448 L 44.917028689537524 4.904668257314981 L 44.90189641708658 5.053106771537404 L 44.8846130108377 5.200605502755085 L 44.8651131171041 5.347121487530707 L 44.84332015831596 5.492606218087801 L 44.8191431903395 5.637004085846485 L 44.79247239755773 5.780250150101072 L 44.7631723606763 5.922266803297919 L 44.73107144845566 6.062958516093385 L 44.69594388979331 6.2022029562334495 L 44.65747637828801 6.339834444775786 L 45.319632066253 6.677219619321441 A 28.612161830040634 28.612161830040634 0 0 0 44.65747637828801 6.339834444775786 L 45.31963206625298 6.677219619321427 L 45.40836764348964 6.565200989566076 L 45.500371301004414 6.45493636925929 L 45.59532484483523 6.346269671836907 L 45.69299660118521 6.23909014973497 L 45.793208402880424 6.133315101103282 L 45.89581786662699 6.0288805860068315 L 46.00070790629026 5.9257359329343124 L 46.10778007796343 5.823840252439112 L 46.2169501268648 5.723160104121469 L 46.32814488091018 5.623667869012998 L 46.44130000961684 5.525340575230533 L 46.55635836180181 5.428159026807936 L 46.673268703520634 5.332107142177328 L 46.791984740659224 5.237171441754111 L 46.912464348896705 5.143340644144121 L 47.034668957915116 5.050605343146437 L 47.15856305244853 4.9589577459569405 L 47.15858139215019 4.95896802676425 A 31 31 0 0 1 47.83892993729427 5.351767442445954 L 47.8389480105854 5.351778184689831 L 47.8215259104902 5.5048974165293885 L 47.80231708850781 5.657097362897723 L 47.78129703823895 5.80835116307437 L 47.758438328515666 5.958630117284617 L 47.7337101272036 6.10790338549354 L 47.70707761358301 6.256137615614602 L 47.67850124363535 6.403296478534298 L 47.647935817574805 6.549340077859391 L 47.61532927592563 6.694224187699188 L 47.58062111391747 6.837899248654129 L 47.543740243923764 6.980309014142733 L 47.50460203269162 7.121388673964187 L 47.463104054337656 7.2610621643070985 L 47.419119743606885 7.3992381475893865 L 47.37248839500916 7.535803677437428 L 47.32299826144222 7.670613492239696 L 47.27035507099529 7.803470071223796 L 47.89361704699458 8.208221130989017 A 28.612161830040634 28.612161830040634 0 0 0 47.27035507099529 7.803470071223796 L 47.89361704699458 8.208221130989017 L 47.99357565668025 8.106091544533879 L 48.09660109984611 8.006047966289334 L 48.202393241118614 7.90790190442387 L 48.310733252106814 7.811519001554299 L 48.42145258635254 7.716798385338926 L 48.53441632409563 7.6236615830054895 L 48.64951331722674 7.532045961792786 L 48.76664993523612 7.4419005660605855 L 48.88574588037217 7.353183331576279 L 49.00673126836334 7.265859142105565 L 49.129544522351665 7.179898427241156 L 49.2541308107592 7.095276122249093 L 49.38044086128796 7.011970878252534 L 49.50843004242812 6.92996445045684 L 49.638057639847034 6.849241216077992 L 49.76928627773472 6.769787788747145 L 49.90208144995141 6.691592705993816 L 49.902098614549274 6.691604847502617 A 31 31 0 0 1 50.53766141988338 7.153368254796234 L 50.53767827129688 7.153380827366323 L 50.504346293287995 7.303840150682884 L 50.46933347273898 7.45319846117707 L 50.432618245209 7.601426483657988 L 50.394176329744255 7.748492808233472 L 50.353980286773506 7.894363540977903 L 50.31199897257092 8.039001872754643 L 50.26819685717062 8.182367539989382 L 50.22253315870462 8.324416140181349 L 50.17496072574882 8.465098248016904 L 50.125424565352205 8.60435825111741 L 50.07385985868241 8.74213278034567 L 50.02018921062704 8.878348533954075 L 49.96431870723572 9.01291915839655 L 49.9061320239683 9.145740586776256 L 49.84548114180696 9.276683693153682 L 49.78217065759526 9.405581878076418 L 49.71592855801754 9.532207943020907 L 50.29346823341611 9.999890350695292 A 28.612161830040634 28.612161830040634 0 0 0 49.71592855801754 9.532207943020907 L 50.293468233416085 9.999890350695278 L 50.403554708105375 9.908768760661555 L 50.51647316860755 9.820042322857962 L 50.631944826483505 9.733492205341598 L 50.749766096277945 9.648961912957656 L 50.869779898878676 9.566333508051411 L 50.99186025626841 9.485514844777477 L 51.115903176125016 9.4064320153424 L 51.24182086717128 9.32902455619298 L 51.36953786844465 9.253242240128294 L 51.49898834915296 9.179042838388941 L 51.63011416071195 9.106390506023075 L 51.762863391894896 9.035254584143399 L 51.89718927188791 8.965608690466855 L 52.033049320777614 8.89743001488257 L 52.170404680294325 8.830698764383136 L 52.30921957863322 8.765397719095663 L 52.44946089683722 8.701511872468515 L 52.44947669827236 8.701525741653903 A 31 31 0 0 1 53.03329040470116 9.22719396403891 L 53.033305849609434 9.227208229187504 L 52.98442918581309 9.373359180149176 L 52.93399597448629 9.518239453864204 L 52.88198782941116 9.661817681416384 L 52.82838388587528 9.804060086929447 L 52.77316039750421 9.944930093936023 L 52.71629023878318 10.084387839537982 L 52.65774228307274 10.222389566836345 L 52.59748061323742 10.358886853705897 L 52.535463502505635 10.493825616924152 L 52.47164207225999 10.627144800434216 L 52.40595848263098 10.758774606828737 L 52.338343424603764 10.888634045922576 L 52.26871252510192 11.016627420542516 L 52.19696097477606 11.142639074655634 L 52.122955062808074 11.266525117487372 L 52.046517870865216 11.388099437042882 L 51.96740262446173 11.50710764628202 L 52.49289235371798 12.03259737553826 A 28.612161830040634 28.612161830040634 0 0 0 51.96740262446173 11.50710764628202 L 52.492892353717956 12.032597375538241 L 52.61190056295709 11.953482129134755 L 52.7334748825126 11.877044937191894 L 52.85736092534434 11.803039025223914 L 52.98337257945746 11.731287474898053 L 53.1113659540774 11.661656575396204 L 53.241225393171234 11.594041517369 L 53.372855199565755 11.528357927739982 L 53.506174383075816 11.464536497494336 L 53.641113146294074 11.402519386762545 L 53.77761043316363 11.342257716927232 L 53.91561216046199 11.283709761216791 L 54.05506990606395 11.226839602495758 L 54.195939913070525 11.171616114124689 L 54.33818231858359 11.118012170588816 L 54.48176054613577 11.066004025513681 L 54.62664081985079 11.015570814186876 L 54.772791770812475 10.96669415039053 L 54.77280603596106 10.966709595298802 A 31 31 0 0 1 55.298474258346076 11.550523301727608 L 55.298488127531456 11.550539103162748 L 55.23460228090431 11.69078042136675 L 55.16930123561684 11.82959531970565 L 55.10256998511741 11.966950679222357 L 55.03439130953312 12.102810728112058 L 54.96474541585657 12.237136608105075 L 54.893609493976896 12.36988583928802 L 54.820957161611034 12.501011650847012 L 54.74675775987168 12.63046213155532 L 54.670975443806995 12.758179132828694 L 54.59356798465757 12.884096823874955 L 54.5144851552225 13.008139743731565 L 54.43366649194857 13.130220101121296 L 54.351038087042326 13.250233903722023 L 54.26650779465838 13.36805517351646 L 54.17995767714201 13.483526831392421 L 54.09123123933843 13.596445291894597 L 54.0001096493047 13.706531766583883 L 54.46779205697909 14.284071441982455 A 28.612161830040634 28.612161830040634 0 0 0 54.0001096493047 13.706531766583883 L 54.46779205697909 14.284071441982455 L 54.594418121923574 14.217829342404734 L 54.723316306846314 14.15451885819304 L 54.85425941322374 14.0938679760317 L 54.987080841603444 14.03568129276427 L 55.12165146604592 13.979810789372955 L 55.257867219654315 13.926140141317582 L 55.39564174888258 13.874575434647781 L 55.534901751983085 13.825039274251171 L 55.675583859818644 13.777466841295372 L 55.817632460010614 13.731803142829374 L 55.96099812724535 13.688001027429067 L 56.10563645902209 13.64601971322648 L 56.25150719176652 13.605823670255734 L 56.398573516342005 13.567381754790997 L 56.54680153882292 13.530666527261012 L 56.69615984931711 13.495653706711998 L 56.846619172633666 13.46232172870311 L 56.84663174520376 13.462338580116615 A 31 31 0 0 1 57.30839515249737 14.097901385450712 L 57.30840729400617 14.097918550048576 L 57.23021221125285 14.230713722265271 L 57.150758783922 14.361942360152955 L 57.07003554954315 14.491569957571873 L 56.98802912174746 14.619559138712031 L 56.9047238777509 14.745869189240786 L 56.82010157275884 14.870455477648324 L 56.73414085789443 14.993268731636658 L 56.64681666842371 15.114254119627823 L 56.558099433939404 15.233350064763865 L 56.46795403820721 15.350486682773248 L 56.3763384169945 15.465583675904355 L 56.28320161466107 15.578547413647453 L 56.18848099844569 15.689266747893178 L 56.09209809557612 15.797606758881379 L 55.993952033710656 15.903398900153874 L 55.89390845546612 16.00642434331974 L 55.79177886901098 16.106382953005415 L 56.1965299287762 16.7296449290047 A 28.612161830040634 28.612161830040634 0 0 0 55.79177886901098 16.106382953005415 L 56.19652992877619 16.729644929004674 L 56.32938650776028 16.677001738557745 L 56.46419632256256 16.62751160499081 L 56.6007618524106 16.58088025639308 L 56.73893783569288 16.536895945662316 L 56.878611326035795 16.495397967308342 L 57.01969098585725 16.4562597560762 L 57.16210075134585 16.41937888608249 L 57.305775812300794 16.384670724074336 L 57.45065992214059 16.35206418242516 L 57.596703521465685 16.32149875636462 L 57.74386238438538 16.292922386416954 L 57.892096614506436 16.266289872796364 L 58.04136988271536 16.2415616714843 L 58.19164883692561 16.218702961761018 L 58.342902637102256 16.19768291149215 L 58.4951025834706 16.178474089509763 L 58.64822181531015 16.161051989414567 L 58.648232557554024 16.161070062705697 A 31 31 0 0 1 59.04103197323573 16.841418607849775 L 59.041042254043035 16.841436947551433 L 58.94939465685354 16.965331042084845 L 58.85665935585586 17.08753565110326 L 58.76282855824587 17.20801525934074 L 58.66789285782265 17.32673129647933 L 58.571840973192046 17.443641638198155 L 58.47465942476944 17.558699990383126 L 58.37633213098698 17.671855119089784 L 58.27683989587851 17.78304987313516 L 58.176159747560874 17.89221992203653 L 58.07426406706567 17.99929209370971 L 57.97111941399315 18.104182133372973 L 57.86668489889671 18.206791597119544 L 57.76090985026501 18.307003398814757 L 57.65373032816308 18.404675155164732 L 57.54506363074069 18.499628698995554 L 57.434799010433906 18.591632356510328 L 57.32278038067855 18.680367933746986 L 57.66016555522421 19.342523621711983 A 28.612161830040634 28.612161830040634 0 0 0 57.32278038067855 18.680367933746986 L 57.6601655552242 19.34252362171196 L 57.797797043766536 19.304056110206652 L 57.9370414839066 19.26892855154431 L 58.07773319670206 19.236827639323664 L 58.21974984989892 19.207527602442234 L 58.3629959141535 19.18085680966046 L 58.507393781912185 19.156679841684007 L 58.65287851246928 19.134886882895866 L 58.79939449724489 19.115386989162268 L 58.94689322846258 19.09810358291338 L 59.095331742685005 19.08297131046244 L 59.244671497992535 19.069933774656562 L 59.39487754121271 19.058941853010403 L 59.54591787572218 19.0499524207053 L 59.69776297189698 19.042927361530694 L 59.850385381482724 19.037832788592425 L 60.003759429262914 19.034638421050012 L 60.15786096327916 19.033317079042952 L 60.15786975750255 19.033336176196947 A 31 31 0 0 1 60.47740158897558 19.751016420118326 L 60.47740989644272 19.751035733990165 L 60.37331389507037 19.86467134121408 L 60.268312747769684 19.976513022093865 L 60.16240241678253 20.086524641350078 L 60.05557757913219 20.194666856741286 L 59.9478314184157 20.30089659548124 L 59.83915536794363 20.405166408059607 L 59.7295387896501 20.507423660215245 L 59.61896856665181 20.607609507320504 L 59.507428577274474 20.705657570086142 L 59.39489900241482 20.80149219030397 L 59.281355391885945 20.895026079275187 L 59.16676737042822 20.98615705826802 L 59.05109678294787 21.07476338594268 L 58.93429492288647 21.160696775452728 L 58.816298164984104 21.24377139094536 L 58.69702058486951 21.323745251484304 L 58.57634021136295 21.400285590718628 L 58.84266303811433 22.094080274367002 A 28.612161830040634 28.612161830040634 0 0 0 58.57634021136295 21.400285590718628 L 58.84266303811433 22.094080274367002 L 58.98356151682519 22.070209899909212 L 59.1257149910781 22.049829781035086 L 59.26899143897397 22.03261100950337 L 59.41329279791406 22.018316263806767 L 59.558542002224186 22.00676486738414 L 59.70467602466374 21.997814030583875 L 59.851641759136704 21.991347751218257 L 59.99939340794336 21.98726977067558 L 60.147890733573604 21.98549886044263 L 60.29709783926879 21.985965533944892 L 60.446982289353656 21.98860967425136 L 60.59751445683078 21.993378774373404 L 60.74866702812871 22.000226601176756 L 60.90041461961873 22.009112160569238 L 61.052733475555854 22.019998882168778 L 61.20560122658483 22.0328539672256 L 61.35899669412329 22.047647860206215 L 61.35900344397484 22.04766777199066 A 31 31 0 0 1 61.60176683362724 22.794816659752687 L 61.60177307673586 22.79483673618789 L 61.48636916875516 22.896968840609784 L 61.3702525896942 22.997222232490838 L 61.253423101079335 23.095560552443807 L 61.13587952147772 23.191944117345585 L 61.01761957415948 23.28632937785904 L 60.89863969918884 23.378668248944322 L 60.778934818554774 23.468907272695617 L 60.65849803816814 23.556986555754648 L 60.537320263195966 23.642838397291012 L 60.41538969154235 23.726385481899705 L 60.29269113111461 23.80753844331808 L 60.169205053637775 23.88619248748094 L 60.044906238470844 23.96222255166698 L 59.919761746071174 24.03547607013891 L 59.7937277248608 24.105761574421532 L 59.66674401506658 24.17282942763298 L 59.538724097234926 24.236335936891223 L 59.73106668757052 24.954168256483058 A 28.612161830040634 28.612161830040634 0 0 0 59.538724097234926 24.236335936891223 L 59.73106668757051 24.95416825648303 L 59.87368844323224 24.945156547890516 L 60.017193488386546 24.939747157651805 L 60.16148490463715 24.937599179273167 L 60.306489973434935 24.938466340986615 L 60.45215093712282 24.94216090043962 L 60.5984200393129 24.94853426205662 L 60.745256590360285 24.957465508023404 L 60.89262510521462 24.96885411987985 L 61.040494057482775 24.982615108125934 L 61.18883501037712 24.998675614608857 L 61.33762198983886 25.016972461273152 L 61.48683101964517 25.037450331904463 L 61.6364397685297 25.06006039159281 L 61.78642727696736 25.084759217504246 L 61.93677374199545 25.111507956441564 L 62.08746034520331 25.140271651095638 L 62.238469113421544 25.171018694076608 L 62.23847374494848 25.171039202333827 A 31 31 0 0 1 62.4018089262817 25.939470814371226 L 62.40181303663101 25.939491433408172 L 62.27636561140762 26.029001054319476 L 62.15040579812555 26.11656776006098 L 62.023937160208376 26.20215536549868 L 61.89696267071116 26.285724281404413 L 61.76948461752149 26.367230959025793 L 61.64150448646059 26.446627204623237 L 61.51302281520807 26.52385932234224 L 61.38403900800202 26.598867026298066 L 61.2545510964957 26.671582035863636 L 61.12455542490677 26.741926225520867 L 60.99404622568453 26.809809130558754 L 60.86301503149454 26.875124489724374 L 60.731449832471185 26.93774528912826 L 60.59933381698015 26.997516355684407 L 60.46664338757246 27.054242686063912 L 60.333344808196166 27.10766972251323 L 60.19938795904908 27.157446611190363 L 60.31564296729889 27.89145184561614 A 28.612161830040634 28.612161830040634 0 0 0 60.19938795904908 27.157446611190363 L 60.315642967298885 27.891451845616114 L 60.45842540611093 27.897397537054033 L 60.60170975086157 27.907018141862178 L 60.74543524851555 27.919964490337236 L 60.88955532129302 27.93598405865554 L 61.034032152358996 27.954884095617672 L 61.1788337794072 27.976511827768345 L 61.323932375048216 28.000742746467733 L 61.46930315566266 28.027473174708582 L 61.61492365138409 28.056615293166804 L 61.760773196955356 28.088093670360482 L 61.9068325645113 28.12184275930169 L 62.053083691292244 28.15780504060636 L 62.19950947300295 28.195929612634302 L 62.3460936038589 28.236171099559446 L 62.4928204506451 28.27848879105321 L 62.63967495207389 28.322845954246713 L 62.78664253730669 28.36920927619091 L 62.78664499976503 28.369230156228145 A 31 31 0 0 1 62.868762438352306 29.15052539499478 L 62.868764370908444 29.15054633072698 L 62.73464785668469 29.226452781989902 L 62.60022485125459 29.300373402439245 L 62.4655026808974 29.372272577646143 L 62.33048844058264 29.44211124602524 L 62.195188957748776 29.50984633653816 L 62.05961074769509 29.575430074766267 L 61.92375995790087 29.63880911520939 L 61.78764229745876 29.699923439961104 L 61.651262946073835 29.75870493669448 L 61.51462643433086 29.815075525737896 L 61.377736482411606 29.86894463508229 L 61.24059577669206 29.920205700507537 L 61.10320564966456 29.96873114854675 L 60.96556560179492 30.01436489887403 L 60.82767254830179 30.05691054980403 L 60.68951954647358 30.09611141169955 L 60.5510934252826 30.131613313786747 L 60.589987137248315 30.873749548097624 A 28.612161830040634 28.612161830040634 0 0 0 60.5510934252826 30.131613313786747Z" fill="none" stroke="black" stroke-width="0.1"></path></svg>